<svg width="15" height="15" viewBox="0 0 15 15" fill="none" xmlns="http://www.w3.org/2000/svg">
<g clip-path="url(#clip0_1483_929)">
<path fill-rule="evenodd" clip-rule="evenodd" d="M15 7.5C15 11.6388 11.6388 15 7.5 15C3.36115 15 0 11.6388 0 7.5C0 3.36115 3.36115 0 7.5 0C11.6388 0 15 3.36115 15 7.5ZM14.4231 7.5C14.4231 3.67327 11.3267 0.576923 7.5 0.576923C3.67327 0.576923 0.576923 3.67327 0.576923 7.5C0.576923 11.3267 3.67327 14.4231 7.5 14.4231C11.3267 14.4231 14.4231 11.3267 14.4231 7.5ZM10.3846 8.82692L10.0038 9.23077L7.5 6.57692L4.99615 9.23077L4.61539 8.82692L7.5 5.76923L10.3846 8.82692Z" fill="#00227A"/>
</g>
<defs>
<clipPath id="clip0_1483_929">
<rect width="15" height="15" fill="white" transform="matrix(0 -1 -1 0 15 15)"/>
</clipPath>
</defs>
</svg>
