<svg width="15" height="15" viewBox="0 0 15 15" fill="none" xmlns="http://www.w3.org/2000/svg">
<g clip-path="url(#clip0_1483_914)">
<path fill-rule="evenodd" clip-rule="evenodd" d="M0 7.5C0 3.36115 3.36115 0 7.5 0C11.6388 0 15 3.36115 15 7.5C15 11.6388 11.6388 15 7.5 15C3.36115 15 0 11.6388 0 7.5ZM0.576923 7.5C0.576923 11.3267 3.67327 14.4231 7.5 14.4231C11.3267 14.4231 14.4231 11.3267 14.4231 7.5C14.4231 3.67327 11.3267 0.576923 7.5 0.576923C3.67327 0.576923 0.576923 3.67327 0.576923 7.5ZM4.61538 6.17308L4.99615 5.76923L7.5 8.42308L10.0038 5.76923L10.3846 6.17308L7.5 9.23077L4.61538 6.17308Z" fill="#00227A"/>
</g>
<defs>
<clipPath id="clip0_1483_914">
<rect width="15" height="15" fill="white" transform="matrix(0 1 1 0 0 0)"/>
</clipPath>
</defs>
</svg>
