<svg
                    width="30"
                    height="30"
                    viewBox="0 0 39 39"
                    fill="none"
                    xmlns="http://www.w3.org/2000/svg"
                  >
                    <path
                      d="M27.8973 7.14179V4.97241H25.4598V7.14179H13.4795V4.97241H11.042V7.14179H3.44922V35.2462H35.3439V7.14179H27.8973ZM32.9064 32.8087H5.88672V17.6596H32.9064V32.8087ZM5.88672 15.2221V9.57929H11.042V11.7487H13.4795V9.57929H25.4598V11.7487H27.8973V9.57929H32.9064V15.2221H5.88672Z"
                      fill="#ACBFFD"
                    />
                    <path
                      d="M18.6958 19.4026H16.2827V21.8401H18.6958V19.4026Z"
                      fill="#ACBFFD"
                    />
                    <path
                      d="M14.5762 24.0093H12.1631V26.4468H14.5762V24.0093Z"
                      fill="#ACBFFD"
                    />
                    <path
                      d="M18.6958 24.0093H16.2827V26.4468H18.6958V24.0093Z"
                      fill="#ACBFFD"
                    />
                    <path
                      d="M10.4449 24.0093H8.03174V26.4468H10.4449V24.0093Z"
                      fill="#ACBFFD"
                    />
                    <path
                      d="M14.5762 28.6284H12.1631V31.0659H14.5762V28.6284Z"
                      fill="#ACBFFD"
                    />
                    <path
                      d="M18.6958 28.6284H16.2827V31.0659H18.6958V28.6284Z"
                      fill="#ACBFFD"
                    />
                    <path
                      d="M10.4449 28.6284H8.03174V31.0659H10.4449V28.6284Z"
                      fill="#ACBFFD"
                    />
                    <path
                      d="M26.9829 19.4026H24.5698V21.8401H26.9829V19.4026Z"
                      fill="#ACBFFD"
                    />
                    <path
                      d="M31.1026 19.4026H28.6895V21.8401H31.1026V19.4026Z"
                      fill="#ACBFFD"
                    />
                    <path
                      d="M22.8394 19.4026H20.4385V21.8401H22.8394V19.4026Z"
                      fill="#ACBFFD"
                    />
                    <path
                      d="M26.9829 24.0093H24.5698V26.4468H26.9829V24.0093Z"
                      fill="#ACBFFD"
                    />
                    <path
                      d="M31.1026 24.0093H28.6895V26.4468H31.1026V24.0093Z"
                      fill="#ACBFFD"
                    />
                    <path
                      d="M22.8394 24.0093H20.4385V26.4468H22.8394V24.0093Z"
                      fill="#ACBFFD"
                    />
                    <path
                      d="M22.8394 28.6284H20.4385V31.0659H22.8394V28.6284Z"
                      fill="#ACBFFD"
                    />
                  </svg>