<svg width="31" height="31" viewBox="0 0 31 31" fill="none" xmlns="http://www.w3.org/2000/svg">
<path d="M20.7508 28.0935C24.8063 28.0935 28.094 24.8058 28.094 20.7504C28.094 16.6949 24.8063 13.4072 20.7508 13.4072C16.6953 13.4072 13.4077 16.6949 13.4077 20.7504C13.4077 24.8058 16.6953 28.0935 20.7508 28.0935Z" fill="#7BBBFF"/>
<path d="M27.3478 3.65196C25.4684 1.77259 22.9013 1.3754 21.5353 2.75102L18.29 5.96727C18.1313 6.1526 18.0484 6.39098 18.0578 6.63479C18.0672 6.87861 18.1683 7.10988 18.3408 7.28241C18.5133 7.45494 18.7446 7.55601 18.9884 7.56543C19.2322 7.57485 19.4706 7.49192 19.656 7.33321L22.8625 4.12665C23.3953 3.61321 24.8 3.88446 25.9722 5.02759C27.1444 6.17071 27.3866 7.60446 26.8828 8.12759L21.7291 13.2716C21.7329 13.2395 21.7329 13.207 21.7291 13.1748C21.7076 13.0959 21.6817 13.0183 21.6516 12.9423C21.5838 12.7776 21.5063 12.6032 21.4288 12.4385L21.2931 12.1866C21.1963 12.022 21.0897 11.8476 20.9734 11.6829L20.8281 11.4698C20.6471 11.2334 20.4496 11.01 20.2372 10.8013C19.3131 9.82186 18.062 9.21523 16.7206 9.09634C16.8657 8.53368 16.9051 7.949 16.8369 7.37196C16.4688 4.58196 13.8434 2.78977 13.7369 2.71227C13.6268 2.63937 13.503 2.58974 13.3731 2.56642C13.2431 2.54309 13.1098 2.54658 12.9813 2.57665C12.8531 2.60505 12.7321 2.6592 12.6255 2.7358C12.5189 2.81241 12.429 2.90987 12.3613 3.02227C11.8088 3.88527 11.4469 4.85627 11.2999 5.87036C11.1529 6.88444 11.2241 7.91823 11.5088 8.90259C10.5244 8.61793 9.49062 8.54673 8.47653 8.69375C7.46245 8.84077 6.49144 9.20261 5.62845 9.75509C5.51604 9.82285 5.41858 9.91275 5.34198 10.0193C5.26537 10.1259 5.21123 10.2469 5.18282 10.3751C5.15275 10.5036 5.14927 10.637 5.17259 10.7669C5.19591 10.8968 5.24555 11.0206 5.31845 11.1307C5.99988 12.1177 6.88524 12.9469 7.9147 13.5623C8.06039 13.641 8.22382 13.681 8.38939 13.6785C8.56105 13.6782 8.72954 13.6323 8.87763 13.5455C9.02572 13.4587 9.14809 13.3341 9.2322 13.1845C9.3577 12.9608 9.38943 12.6966 9.32042 12.4496C9.25142 12.2027 9.08731 11.9931 8.86407 11.867C8.42664 11.62 8.02563 11.3136 7.67251 10.9563C8.49935 10.6492 9.38871 10.5486 10.2633 10.6634C11.1378 10.7782 11.9711 11.1049 12.6906 11.6151L10.7531 13.5526L6.35501 17.9023C6.17458 18.0838 6.07331 18.3293 6.07331 18.5852C6.07331 18.8412 6.17458 19.0867 6.35501 19.2682C6.44507 19.359 6.55221 19.4311 6.67027 19.4803C6.78832 19.5294 6.91494 19.5548 7.04282 19.5548C7.17071 19.5548 7.29733 19.5294 7.41538 19.4803C7.53343 19.4311 7.64058 19.359 7.73064 19.2682L12.1481 14.841C12.2409 14.7606 12.3499 14.7011 12.4678 14.6666C12.9861 14.5914 13.5149 14.6508 14.0036 14.8392C14.4922 15.0275 14.9241 15.3384 15.2578 15.742C15.3973 15.8777 15.5269 16.0234 15.6453 16.1779C16.4591 17.2242 16.6141 18.3866 16.1588 18.8516L14.6863 20.3435L10.1234 24.9063C10.1218 24.8741 10.1218 24.8417 10.1234 24.8095C10.0986 24.7336 10.0695 24.6592 10.0363 24.5866C9.97814 24.4123 9.90064 24.2476 9.82314 24.0732L9.68751 23.7923C9.59665 23.6253 9.49638 23.4635 9.3872 23.3079L9.22251 23.0754C9.05579 22.8596 8.87794 22.6527 8.6897 22.4554L8.64126 22.407C8.03969 21.7984 7.31686 21.3231 6.5197 21.012C5.92078 20.7247 5.25132 20.6175 4.59266 20.7035C3.934 20.7895 3.31449 21.0649 2.80939 21.4963L2.76095 21.5545C1.43376 22.9591 1.84064 25.4876 3.7297 27.367C4.68151 28.3728 5.98027 28.9788 7.36251 29.0623C7.74488 29.0735 8.12569 29.009 8.48311 28.8727C8.84053 28.7364 9.16752 28.5309 9.44532 28.2679H9.49376L16.0619 21.7095L17.5344 20.237L21.1091 16.6623L28.2584 9.49352C29.6244 8.09852 29.2272 5.53134 27.3478 3.65196ZM18.1253 16.7495L18.0381 16.517C17.9738 16.3448 17.8994 16.1766 17.8153 16.0132C17.8153 15.926 17.7281 15.8388 17.6797 15.7516C17.5855 15.5845 17.482 15.4228 17.3697 15.2673C17.3236 15.1893 17.2718 15.1148 17.2147 15.0445C17.0347 14.807 16.8406 14.5806 16.6334 14.3663C16.4192 14.1592 16.1928 13.9651 15.9553 13.7851L15.7422 13.6398C15.5802 13.5242 15.412 13.4175 15.2384 13.3201L14.9963 13.1845C14.8219 13.0973 14.6475 13.0295 14.4731 12.9616L14.26 12.8745H14.1534L14.7638 12.2641L14.9091 12.1285L15.7228 11.3148C15.874 11.1737 16.0688 11.0883 16.275 11.0726C16.7574 11.0687 17.2351 11.1678 17.6761 11.3633C18.1171 11.5587 18.5114 11.846 18.8325 12.206C18.9697 12.344 19.0991 12.4895 19.22 12.642C20.0241 13.6882 20.1888 14.8507 19.7238 15.3157L18.1641 16.8851L18.1253 16.7495ZM13.5625 5.06634C14.2817 5.73741 14.7614 6.62543 14.9284 7.59477C14.9934 8.46875 14.7233 9.33469 14.1728 10.0166C13.6818 9.30084 13.37 8.47747 13.2638 7.61594C13.1576 6.75442 13.26 5.87998 13.5625 5.06634ZM5.01814 25.9816C3.8847 24.8385 3.61345 23.3951 4.1172 22.8816C4.20411 22.8033 4.30639 22.7439 4.41751 22.7073H4.49501C4.60684 22.666 4.72461 22.6431 4.84376 22.6395H4.96001C5.11034 22.6409 5.25995 22.6605 5.40564 22.6976C5.58836 22.743 5.76667 22.8046 5.93845 22.8816L6.09345 22.9591C6.23113 23.0272 6.36386 23.1049 6.49064 23.1916L6.6747 23.3176C6.84644 23.4479 7.01135 23.5869 7.16876 23.7341C7.57417 24.1175 7.90293 24.5745 8.13751 25.0807C8.29837 25.3449 8.38345 25.6482 8.38345 25.9574C8.38345 26.2667 8.29837 26.57 8.13751 26.8341C7.59501 27.3863 6.16126 27.1248 5.01814 25.9816Z" fill="#00227A"/>
</svg>
