<svg width="30" height="30" viewBox="0 0 30 30" fill="none" xmlns="http://www.w3.org/2000/svg">
<g clip-path="url(#clip0_2134_282)">
<path d="M0.600006 23.4704H18V29.33L21.6 27.17L25.2 29.33V23.4704H29.4V0.67041H0.600006V23.4704ZM24.159 19.3988C24.105 19.4534 24.0474 19.5038 23.9904 19.5548C23.958 19.5836 23.928 19.6142 23.8944 19.6418C23.8572 19.673 23.8176 19.6994 23.7792 19.7288C23.2622 20.1261 22.6464 20.3745 21.9984 20.447L21.9654 20.4518C21.7216 20.4761 21.476 20.4761 21.2322 20.4518L21.1992 20.447C20.5512 20.3744 19.9355 20.126 19.4184 19.7288C19.38 19.6994 19.3404 19.6724 19.3032 19.6418C19.2702 19.6142 19.2396 19.5836 19.2072 19.5548C19.1502 19.5038 19.0932 19.4534 19.0386 19.3988C18.3715 18.7264 17.9973 17.8176 17.9976 16.8704C17.9976 14.885 19.6122 13.2704 21.5976 13.2704C23.583 13.2704 25.1976 14.885 25.1976 16.8704C25.2 17.8175 24.8265 18.7269 24.159 19.3988ZM24 27.2108L21.6 25.7708L19.2 27.2108V21.0284C19.2204 21.0404 19.2432 21.0482 19.2642 21.0596C19.4232 21.1484 19.587 21.23 19.7562 21.3008L19.779 21.3092C20.9456 21.7912 22.2556 21.7912 23.4222 21.3092L23.445 21.3008C23.6142 21.23 23.778 21.149 23.937 21.0596C23.958 21.0482 23.9808 21.0404 24.0012 21.0284V27.2108H24ZM1.80001 1.87041H28.2V22.2704H25.2V20.0348C25.973 19.1619 26.3998 18.0364 26.4 16.8704C26.4 14.2238 24.2466 12.0704 21.6 12.0704C18.9534 12.0704 16.8 14.2238 16.8 16.8704C16.8 18.083 17.2554 19.1888 18 20.0348V22.2704H1.80001V1.87041Z" fill="white"/>
<path d="M7.20001 4.27002H22.8V5.47002H7.20001V4.27002ZM10.2 7.87002H19.8V9.07002H10.2V7.87002ZM4.20001 18.67H10.8V19.87H4.20001V18.67Z" fill="white"/>
</g>
<defs>
<clipPath id="clip0_2134_282">
<rect width="30" height="30" fill="white"/>
</clipPath>
</defs>
</svg>
