<svg width="400" height="400" viewBox="0 0 400 400" fill="none" xmlns="http://www.w3.org/2000/svg">
<path d="M32.6405 246.571C16.1372 271.426 11.4562 294.012 12.6856 312.69C14.9068 346.434 51.6311 360.418 85.4768 360.418H311.713C330.741 360.418 347.475 346.039 354.675 328.44C370.679 289.327 399.064 239.472 380.608 191.755C356.609 129.711 321.213 141.156 276.217 87.5452C231.221 33.9344 176.627 32.7298 110.033 76.1002C43.4399 119.471 78.2361 177.9 32.6405 246.571Z" fill="#E7E8FF"/>
<path d="M287.564 266.796C286.062 302.376 308.228 341.329 320.809 358.127C321.466 359.004 322.497 359.501 323.593 359.501H332.946C335.069 359.501 336.712 357.615 336.433 355.511C328.098 292.747 305.001 269.296 291.474 264.028C289.554 263.28 287.65 264.737 287.564 266.796Z" fill="white"/>
<path fillRule="evenodd" clipRule="evenodd" d="M291.047 265.128C290.004 264.721 288.801 265.458 288.743 266.845C288.003 284.392 293.101 302.841 299.992 319.042C306.879 335.234 315.516 349.09 321.755 357.418C322.18 357.988 322.856 358.32 323.593 358.32H332.947C334.351 358.32 335.449 357.066 335.263 355.665C326.951 293.065 303.975 270.162 291.047 265.128ZM286.384 266.745C286.5 264.014 289.107 261.838 291.904 262.928C306.028 268.429 329.248 292.428 337.603 355.354C337.976 358.161 335.787 360.681 332.947 360.681H323.593C322.139 360.681 320.753 360.018 319.865 358.834C313.523 350.365 304.787 336.346 297.82 319.966C290.857 303.597 285.624 284.78 286.384 266.745Z" fill="#032068"/>
<path d="M358.383 245.579C329.268 271.603 323.437 332.592 323.521 356.539C323.529 358.449 325.096 359.932 327.007 359.932H335.668C336.979 359.932 338.196 359.184 338.803 358.021C367.943 302.157 364.945 267.469 363.889 248.129C363.733 245.288 360.504 243.683 358.383 245.579Z" fill="#032068"/>
<path d="M381.371 300.026C358.416 310.995 340.327 338.108 331.969 354.579C330.808 356.867 332.508 359.502 335.075 359.502H345.369C346.052 359.502 346.727 359.302 347.296 358.924C372.307 342.328 382.669 317.667 385.641 303.364C386.167 300.832 383.705 298.91 381.371 300.026Z" fill="white"/>
<path fillRule="evenodd" clipRule="evenodd" d="M384.485 303.124C384.812 301.552 383.337 300.393 381.88 301.089C370.617 306.472 360.485 315.85 352.105 325.99C343.733 336.121 337.168 346.941 333.021 355.112C332.28 356.573 333.341 358.32 335.075 358.32H345.369C345.825 358.32 346.272 358.186 346.643 357.941C371.329 341.56 381.559 317.209 384.485 303.124ZM380.863 298.96C384.073 297.425 387.523 300.11 386.796 303.605C383.779 318.124 373.284 343.096 347.948 359.908C347.183 360.416 346.28 360.681 345.369 360.681H335.075C331.676 360.681 329.336 357.16 330.917 354.044C335.128 345.745 341.785 334.773 350.287 324.486C358.779 314.21 369.169 304.548 380.863 298.96Z" fill="#032068"/>
<path fillRule="evenodd" clipRule="evenodd" d="M299.971 277.797C304.799 284.351 309.347 293.323 313.425 303.031C316.188 309.607 318.745 316.544 321.036 323.34L323.315 316.061L325.568 316.767L322.308 327.179C324.401 333.613 326.241 339.835 327.773 345.4C329.189 350.541 330.344 355.125 331.192 358.804L328.892 359.336C328.081 355.82 326.987 351.457 325.645 346.563L317.496 342.912L318.461 340.759L324.824 343.608C323.415 338.609 321.776 333.159 319.947 327.552C317.449 319.903 314.599 311.972 311.485 304.507L300.487 302.055L301 299.751L310.351 301.836C306.543 293.028 302.393 285.064 298.069 279.197L299.971 277.797Z" fill="#032068"/>
<path fillRule="evenodd" clipRule="evenodd" d="M349.212 285.861C350.919 279.741 352.544 274.203 354.004 269.631C355.701 264.321 357.151 260.401 358.229 258.369L356.145 257.263C354.953 259.507 353.447 263.62 351.756 268.912C350.055 274.235 348.141 280.835 346.14 288.112C344.743 293.189 343.303 298.6 341.863 304.141L338.453 296.132L336.281 297.056L340.892 307.891C339.152 314.653 337.424 321.541 335.785 328.196C332.947 339.717 330.375 350.541 328.461 358.804L330.761 359.336C332.644 351.205 335.167 340.591 337.952 329.271L349.557 323.056L348.444 320.975L338.713 326.185C340.191 320.217 341.729 314.101 343.279 308.091C344.963 301.556 346.656 295.147 348.292 289.189L357.803 283.383L356.572 281.368L349.212 285.861Z" fill="white"/>
<path fillRule="evenodd" clipRule="evenodd" d="M367.716 319.48C370.584 316.499 373.388 313.854 376.024 311.732L374.544 309.894C371.075 312.686 367.372 316.314 363.655 320.355C361.245 322.974 358.824 325.772 356.448 328.643L357.06 324.786L354.729 324.416L353.479 332.294C350.349 336.207 347.343 340.168 344.601 343.911C340.321 349.755 336.683 355.075 334.224 358.858L336.203 360.144C338.568 356.504 342.051 351.41 346.153 345.788H354.596V343.428H347.891C350.288 340.196 352.86 336.84 355.516 333.526C358.648 329.619 361.893 325.774 365.111 322.259L373.305 321.028L372.955 318.694L367.716 319.48Z" fill="#032068"/>
<path d="M165.841 59.0653C165.841 48.8072 174.163 40.4912 184.428 40.4912H323.281C333.547 40.4912 341.868 48.8072 341.868 59.0655V340.751C341.868 351.009 333.547 359.325 323.281 359.325H184.428C174.163 359.325 165.841 351.009 165.841 340.751V59.0653Z" fill="white"/>
<path fillRule="evenodd" clipRule="evenodd" d="M164.748 59.0652C164.748 48.2035 173.559 39.3984 184.428 39.3984H323.281C334.151 39.3984 342.961 48.2035 342.961 59.0652V340.751C342.961 351.613 334.151 360.417 323.281 360.417H184.428C173.559 360.417 164.748 351.613 164.748 340.751V59.0652ZM184.428 41.5836C174.767 41.5836 166.935 49.4104 166.935 59.0652V340.751C166.935 350.405 174.767 358.233 184.428 358.233H323.281C332.943 358.233 340.775 350.405 340.775 340.751V59.0652C340.775 49.4104 332.943 41.5836 323.281 41.5836H184.428Z" fill="#032068"/>
<path d="M217.807 305.588C217.807 302.571 220.255 300.125 223.273 300.125H286.059C289.079 300.125 291.525 302.571 291.525 305.588V310.363C291.525 313.38 289.079 315.825 286.059 315.825H223.273C220.255 315.825 217.807 313.38 217.807 310.363V305.588Z" fill="#E7E8FF"/>
<path d="M217.628 48.8841L213.149 40.4907H294.561L289.119 49.5557C286.352 54.163 281.369 56.9821 275.993 56.9821H231.135C225.481 56.9821 220.288 53.8686 217.628 48.8841Z" fill="#032068"/>
<path d="M337.468 47.0873H170.243C175.963 41.3702 181.428 40.3074 183.444 40.4907H324.265C331.307 40.4907 336 44.8885 337.468 47.0873Z" fill="#032068"/>
<path d="M337.468 352.728H170.243C175.963 358.445 181.428 359.508 183.444 359.325H324.265C331.307 359.325 336 354.928 337.468 352.728Z" fill="#032068"/>
<path fillRule="evenodd" clipRule="evenodd" d="M274.003 126.103H197.263V123.917H274.003V126.103Z" fill="#E7E8FF"/>
<path fillRule="evenodd" clipRule="evenodd" d="M310.861 106.78H197.263V104.595H310.861V106.78Z" fill="#E7E8FF"/>
<path d="M235.935 265.735C235.935 262.717 238.383 260.272 241.401 260.272H246.179C249.197 260.272 251.645 262.717 251.645 265.735V270.508C251.645 273.525 249.197 275.972 246.179 275.972H241.401C238.383 275.972 235.935 273.525 235.935 270.509V265.735Z" fill="#032068"/>
<path fillRule="evenodd" clipRule="evenodd" d="M263.845 265.735C263.845 262.115 266.783 259.179 270.405 259.179H275.183C278.805 259.179 281.743 262.115 281.743 265.735V270.508C281.743 274.129 278.805 277.064 275.183 277.064H270.405C266.783 277.064 263.845 274.129 263.845 270.508V265.735ZM270.405 261.364C267.989 261.364 266.032 263.321 266.032 265.735V270.508C266.032 272.923 267.989 274.879 270.405 274.879H275.183C277.597 274.879 279.556 272.923 279.556 270.508V265.735C279.556 263.321 277.597 261.364 275.183 261.364H270.405Z" fill="#E7E8FF"/>
<path d="M290.317 232.481V154.627C290.317 151.609 287.869 149.164 284.851 149.164H232.409C230.96 149.164 229.569 149.74 228.544 150.764L218.2 161.101C217.175 162.125 216.599 163.516 216.599 164.964V232.481C216.599 235.499 219.047 237.945 222.065 237.945H284.851C287.869 237.945 290.317 235.499 290.317 232.481Z" fill="white"/>
<path fillRule="evenodd" clipRule="evenodd" d="M227.771 149.992C229.001 148.762 230.669 148.072 232.409 148.072H284.851C288.473 148.072 291.411 151.006 291.411 154.626V232.481C291.411 236.102 288.473 239.037 284.851 239.037H222.065C218.443 239.037 215.505 236.102 215.505 232.481V164.964C215.505 163.225 216.196 161.558 217.427 160.329L227.771 149.992ZM232.409 150.257C231.249 150.257 230.137 150.717 229.317 151.537L218.973 161.874C218.152 162.693 217.692 163.805 217.692 164.964V232.481C217.692 234.896 219.649 236.852 222.065 236.852H284.851C287.265 236.852 289.224 234.896 289.224 232.481V154.626C289.224 152.213 287.265 150.257 284.851 150.257H232.409Z" fill="#032068"/>
<path d="M216.913 162.701L230.46 149.164V159.424C230.46 161.235 228.992 162.701 227.18 162.701H216.913Z" fill="#032068"/>
<path fillRule="evenodd" clipRule="evenodd" d="M248.417 167.572H232.036V165.387H248.417V167.572ZM273.62 182.684H232.036V180.499H273.62V182.684ZM273.62 195.592H232.036V193.407H273.62V195.592ZM273.62 208.815H232.036V206.629H273.62V208.815ZM266.06 221.092H232.036V218.907H266.06V221.092Z" fill="#032068"/>
<path d="M176.932 321.164L181.444 360.417H58.4668L62.4156 321.164H176.932Z" fill="#032068"/>
<path d="M106.981 150.236L105.289 164.904L105.853 176.185L126.725 178.443L135.751 167.16L134.059 150.236C137.499 148.271 140.081 142.881 140.691 134.441C141.865 134.065 144.213 132.297 144.213 128.236C144.213 124.174 141.64 122.782 140.353 122.594C138.521 108.901 131.418 103.979 119.392 103.979C107.862 103.979 101.61 111.52 99.7133 122.594C98.3751 122.406 95.6987 123.271 95.6987 128.236C95.6987 133.2 98.103 134.441 99.305 134.441C100.408 144.005 105.316 148.904 106.981 150.236Z" fill="white"/>
<path fillRule="evenodd" clipRule="evenodd" d="M106.779 109.964C103.759 113.011 101.799 117.413 100.877 122.794L100.683 123.923L99.5492 123.763C99.1996 123.714 98.5732 123.798 98.0271 124.329C97.4904 124.851 96.879 125.957 96.879 128.236C96.879 130.534 97.4348 131.796 97.9695 132.459C98.5091 133.127 99.0799 133.261 99.3052 133.261H100.357L100.478 134.305C101.537 143.495 106.239 148.132 107.718 149.315L108.228 149.723L106.472 164.941L106.981 175.121L126.208 177.199L134.529 166.799L132.808 149.592L133.473 149.212C134.901 148.396 136.265 146.799 137.353 144.296C138.439 141.801 139.216 138.483 139.513 134.356L139.571 133.56L140.331 133.317C141.024 133.095 143.032 131.776 143.032 128.236C143.032 124.817 140.948 123.874 140.183 123.762L139.301 123.634L139.183 122.751C138.291 116.074 136.14 111.742 132.937 109.056C129.726 106.362 125.262 105.159 119.392 105.159C113.907 105.159 109.775 106.942 106.779 109.964ZM105.102 108.303C108.589 104.786 113.347 102.798 119.392 102.798C125.548 102.798 130.649 104.056 134.453 107.247C138.124 110.326 140.408 115.051 141.412 121.658C143.184 122.31 145.393 124.24 145.393 128.236C145.393 132.164 143.419 134.353 141.812 135.233C141.465 139.233 140.671 142.591 139.519 145.237C138.439 147.719 137.019 149.637 135.305 150.841L136.973 167.521L127.242 179.685L104.725 177.251L104.105 164.865L105.736 150.728C103.663 148.876 99.4674 144.039 98.2446 135.445C97.524 135.211 96.7696 134.731 96.1328 133.941C95.165 132.742 94.5186 130.902 94.5186 128.236C94.5186 125.55 95.2454 123.742 96.3815 122.637C97.1146 121.924 97.9551 121.567 98.7254 121.443C99.7672 116.155 101.834 111.6 105.102 108.303Z" fill="#032068"/>
<path d="M96.2629 113.005C95.3603 118.42 96.263 125.98 98.5194 128.8L103.032 119.21C104.386 120.113 110.742 120.338 113.186 120.338C122.664 119.887 129.546 114.509 131.802 111.876C132.254 115.938 138.384 126.732 140.828 131.621C143.837 127.108 145.792 115.261 143.085 103.979C140.377 92.6965 132.931 92.1324 128.418 93.2606C116.007 83.6706 101.904 84.7989 95.1346 94.3889C89.7191 102.061 92.8782 109.996 96.2629 113.005Z" fill="#032068"/>
<path d="M70.3947 333.093C67.4601 330.321 66.0809 327.863 65.7582 326.98C62.1342 329.225 53.7335 330.773 51.1333 334.703C47.883 339.615 54.5814 354.248 57.1186 355.603C59.6559 356.957 69.2238 354.543 71.659 352.331C73.6071 350.563 71.8863 345.721 70.7009 343.792C71.9813 342.804 75.6203 342.331 75.4082 339.909C75.1433 336.884 74.0631 336.557 70.3947 333.093Z" fill="white"/>
<path fillRule="evenodd" clipRule="evenodd" d="M66.3692 325.213L66.8668 326.575C67.1112 327.244 68.3665 329.555 71.205 332.235C71.8878 332.88 72.4751 333.411 72.9939 333.879C73.1638 334.032 73.3263 334.179 73.4825 334.321C74.1018 334.884 74.6405 335.389 75.0757 335.9C76.0277 337.016 76.4346 338.101 76.584 339.807C76.7584 341.799 75.2638 342.859 74.1602 343.435C73.6893 343.68 73.1789 343.896 72.7446 344.079C72.649 344.119 72.557 344.157 72.4699 344.195C72.4086 344.221 72.35 344.245 72.2941 344.271C72.7833 345.3 73.2535 346.597 73.5123 347.891C73.6945 348.8 73.7846 349.768 73.6685 350.672C73.5522 351.577 73.2144 352.513 72.4525 353.205C71.6836 353.903 70.4683 354.532 69.1582 355.06C67.8159 355.601 66.2544 356.085 64.6981 356.453C63.1444 356.82 61.5629 357.077 60.1829 357.152C58.8721 357.224 57.5073 357.148 56.5628 356.644C56.0145 356.351 55.5059 355.804 55.0682 355.241C54.6034 354.644 54.1154 353.891 53.6306 353.04C52.6597 351.336 51.6581 349.164 50.8442 346.883C50.0319 344.608 49.3896 342.179 49.1664 339.969C48.948 337.808 49.1058 335.628 50.1492 334.052C50.9344 332.865 52.1104 331.923 53.3944 331.145C54.6853 330.363 56.1613 329.703 57.621 329.115C58.4662 328.775 59.3565 328.44 60.2069 328.119C60.7929 327.899 61.36 327.685 61.8806 327.481C63.215 326.961 64.3306 326.476 65.1366 325.976L66.3692 325.213ZM54.6173 333.164C53.4816 333.852 52.6325 334.576 52.1176 335.355C51.5357 336.233 51.3121 337.725 51.5147 339.732C51.7126 341.689 52.2939 343.924 53.0671 346.089C53.8387 348.251 54.7843 350.297 55.6814 351.872C56.1306 352.66 56.5568 353.311 56.9313 353.792C57.3328 354.308 57.5886 354.516 57.6748 354.561C57.9988 354.735 58.7813 354.865 60.0544 354.796C61.258 354.729 62.6964 354.5 64.1562 354.156C65.6136 353.812 67.059 353.361 68.2749 352.871C69.523 352.368 70.417 351.865 70.8657 351.457C71.0778 351.264 71.2554 350.932 71.3273 350.372C71.3994 349.811 71.3506 349.116 71.1978 348.353C70.891 346.821 70.2169 345.259 69.6953 344.411L69.14 343.507L69.9797 342.859C70.4375 342.504 71.0446 342.236 71.5429 342.024C71.6519 341.977 71.7591 341.932 71.8645 341.888C72.2935 341.707 72.6919 341.539 73.0682 341.341C74.0513 340.829 74.2702 340.443 74.2326 340.013C74.1169 338.692 73.8513 338.101 73.28 337.432C72.9533 337.049 72.5175 336.635 71.8943 336.068C71.7471 335.933 71.5906 335.792 71.4245 335.643C70.9027 335.171 70.2882 334.616 69.5844 333.951C67.3873 331.876 65.9932 329.936 65.2397 328.607C64.471 328.985 63.6153 329.339 62.7392 329.68C62.1528 329.909 61.5686 330.129 60.9812 330.351C60.1666 330.656 59.3454 330.965 58.5028 331.305C57.0842 331.876 55.746 332.48 54.6173 333.164Z" fill="#032068"/>
<path fillRule="evenodd" clipRule="evenodd" d="M65.7823 173.378C65.4148 173.537 65.0445 173.721 64.6719 173.929C35.3377 191.981 17.85 251.777 18.4141 265.316C18.9783 278.856 40.9789 337.524 46.6201 338.088C51.3353 338.56 65.51 333.906 70.0359 329.402C84.3017 333.01 106.573 333.01 122.776 333.01C150.419 333.01 177.496 330.754 182.009 323.421C183.523 320.96 181.82 312.326 180.316 307.061C183.701 313.454 194.645 323.872 211.343 314.394C232.215 302.548 222.625 266.445 205.137 212.853C191.147 169.98 154.931 160.014 138.572 160.39C138.572 164.152 135.073 171.673 121.084 171.673C107.094 171.673 103.972 164.152 103.596 160.39C96.8267 160.578 79.7903 163.437 65.8001 173.365C65.7941 173.369 65.7883 173.374 65.7823 173.378Z" fill="white"/>
<path fillRule="evenodd" clipRule="evenodd" d="M104.661 159.18L104.77 160.274C104.936 161.928 105.712 164.456 108.03 166.571C110.336 168.675 114.303 170.494 121.084 170.494C127.866 170.494 131.932 168.674 134.287 166.563C136.656 164.44 137.391 161.942 137.391 160.391V159.238L138.544 159.211C155.28 158.826 192.067 168.995 206.26 212.488C214.996 239.262 221.807 261.799 223.797 279.144C225.783 296.44 223.025 309.122 211.925 315.422C203.283 320.327 195.988 320.14 190.377 317.767C187.312 316.471 184.791 314.539 182.845 312.5C183.089 313.718 183.303 314.948 183.464 316.134C183.68 317.728 183.807 319.271 183.775 320.595C183.744 321.866 183.567 323.14 183.013 324.04C181.656 326.246 178.767 327.872 175.121 329.13C171.412 330.408 166.656 331.39 161.227 332.135C150.36 333.627 136.619 334.191 122.776 334.191H122.666C106.762 334.191 84.7982 334.191 70.3739 330.702C69.1487 331.784 67.4985 332.824 65.6762 333.774C63.579 334.866 61.1835 335.876 58.7937 336.724C56.4035 337.572 53.9985 338.266 51.8779 338.717C49.7891 339.163 47.8711 339.399 46.5026 339.263C45.7229 339.184 45.0565 338.664 44.5517 338.167C44.0019 337.626 43.4263 336.89 42.8349 336.018C41.6478 334.267 40.2958 331.82 38.8545 328.907C35.967 323.07 32.6555 315.223 29.5106 306.99C26.3645 298.752 23.3755 290.104 21.1358 282.66C18.9106 275.263 17.383 268.92 17.2349 265.366C17.0861 261.794 18.1146 255.372 20.1363 247.568C22.1689 239.722 25.2369 230.36 29.2437 220.858C37.2282 201.92 49.0526 182.156 64.0533 172.924L64.0739 172.912L64.0951 172.9C64.4618 172.695 64.8289 172.51 65.1959 172.347C79.4131 162.292 96.6458 159.403 103.563 159.211L104.661 159.18ZM139.664 161.562C139.364 163.628 138.261 166.171 135.861 168.322C132.97 170.912 128.291 172.854 121.084 172.854C113.874 172.854 109.285 170.911 106.439 168.314C104.069 166.151 103 163.619 102.591 161.616C95.3923 162.046 79.5693 165.046 66.4935 174.32L66.4895 174.323L66.3779 174.407L66.2501 174.463C65.9285 174.602 65.6014 174.763 65.2694 174.948C50.9455 183.774 39.3665 202.924 31.4186 221.774C27.4573 231.17 24.4257 240.423 22.4213 248.16C20.4059 255.94 19.4601 262.071 19.5933 265.268C19.7273 268.482 21.1614 274.551 23.3962 281.98C25.6166 289.36 28.5861 297.954 31.7157 306.147C34.8466 314.343 38.1283 322.115 40.9702 327.86C42.3935 330.738 43.6902 333.074 44.7883 334.692C45.3394 335.504 45.8154 336.099 46.2079 336.486C46.5799 336.852 46.7561 336.91 46.7547 336.915C46.7547 336.915 46.7538 336.915 46.7522 336.915C47.7426 337.011 49.3586 336.842 51.3853 336.41C53.3901 335.982 55.6955 335.319 58.0043 334.499C60.3133 333.68 62.6046 332.712 64.5855 331.68C66.583 330.639 68.1958 329.568 69.2033 328.566L69.6771 328.095L70.3253 328.259C84.4155 331.823 106.514 331.831 122.776 331.831C136.576 331.831 150.195 331.267 160.905 329.796C166.264 329.062 170.851 328.104 174.352 326.898C177.917 325.668 180.105 324.263 181.004 322.803C181.208 322.471 181.385 321.744 181.415 320.539C181.443 319.388 181.333 317.982 181.125 316.452C180.709 313.396 179.923 309.978 179.181 307.386L181.359 306.51C182.952 309.518 186.349 313.5 191.297 315.592C196.179 317.658 202.704 317.94 210.76 313.368C220.532 307.823 223.416 296.528 221.452 279.414C219.495 262.347 212.767 240.038 204.016 213.22C190.527 171.882 156.115 161.642 139.664 161.562Z" fill="#032068"/>
<path d="M90.2601 184.24C90.2658 182.284 91.8555 180.704 93.811 180.709L142.931 180.851C144.887 180.856 146.467 182.445 146.462 184.401L146.27 251.29C146.263 253.244 144.674 254.826 142.718 254.82L93.5979 254.677C91.6425 254.672 90.0618 253.083 90.0674 251.127L90.2601 184.24Z" fill="white"/>
<path fillRule="evenodd" clipRule="evenodd" d="M89.0799 184.236C89.0874 181.629 91.2071 179.521 93.8143 179.529L142.935 179.671C145.541 179.677 147.65 181.797 147.642 184.405L147.449 251.292C147.441 253.9 145.321 256.007 142.715 256L93.5944 255.859C90.9872 255.851 88.8796 253.731 88.8872 251.124L89.0799 184.236ZM93.8075 181.889C92.5039 181.885 91.444 182.939 91.4403 184.243L91.2476 251.131C91.2439 252.435 92.2976 253.493 93.6012 253.497L142.722 253.639C144.026 253.643 145.085 252.589 145.088 251.285L145.281 184.397C145.285 183.095 144.231 182.035 142.928 182.031L93.8075 181.889Z" fill="#032068"/>
<path d="M180.316 307.625L150.418 255.163C152.674 274.343 170.726 306.497 182.573 319.472C182.573 316.764 180.88 309.505 180.316 307.625Z" fill="#032068"/>
<path d="M198.368 259.111C190.04 251.338 172.42 235.914 167.564 235.43C167.489 235.428 167.416 235.424 167.341 235.419C167.412 235.419 167.487 235.423 167.564 235.43C169.78 235.476 172.419 233.431 172.419 224.7C178.06 239.931 194.42 247.266 198.368 259.111Z" fill="#032068"/>
<path d="M150.983 248.958L165.649 237.512C163.852 235.936 159.719 230.892 157.561 223.324C155.405 215.758 149.835 212.815 147.317 212.29V219.647C145.341 217.895 140.632 214.812 137.613 216.494C133.839 218.595 135.456 235.411 135.996 237.512C136.535 239.615 143.544 242.767 146.24 243.294C148.396 243.714 149.289 246.136 150.983 248.958Z" fill="white"/>
<path fillRule="evenodd" clipRule="evenodd" d="M146.138 210.837L147.559 211.135C150.457 211.74 156.408 214.968 158.698 223.001C160.791 230.347 164.799 235.196 166.428 236.625L167.5 237.565L150.656 250.708L149.971 249.564C149.631 248.999 149.32 248.445 149.036 247.936C148.956 247.793 148.879 247.655 148.803 247.521C148.448 246.892 148.134 246.355 147.818 245.9C147.183 244.989 146.65 244.575 146.014 244.451C144.511 244.159 141.972 243.184 139.767 242.041C138.654 241.465 137.575 240.821 136.723 240.163C136.298 239.833 135.903 239.481 135.586 239.113C135.279 238.756 134.983 238.316 134.852 237.805C134.691 237.175 134.483 235.637 134.315 233.741C134.144 231.809 134.007 229.409 134.007 227.003C134.007 224.607 134.143 222.156 134.534 220.143C134.73 219.137 134.998 218.195 135.372 217.407C135.74 216.633 136.266 215.893 137.039 215.463C139.051 214.341 141.441 214.884 143.325 215.699C144.333 216.136 145.296 216.692 146.138 217.257V210.837ZM148.499 213.917V222.269L146.535 220.529C145.616 219.715 144.048 218.584 142.388 217.865C140.67 217.121 139.195 216.964 138.188 217.524C138.018 217.619 137.768 217.864 137.504 218.42C137.247 218.963 137.026 219.695 136.851 220.595C136.502 222.391 136.367 224.669 136.367 227.003C136.367 229.327 136.5 231.655 136.666 233.533C136.835 235.447 137.031 236.8 137.139 237.219C137.139 237.219 137.142 237.228 137.148 237.245C137.156 237.263 137.168 237.288 137.187 237.32C137.226 237.384 137.286 237.469 137.375 237.572C137.555 237.781 137.818 238.025 138.167 238.295C138.864 238.835 139.808 239.405 140.852 239.945C142.96 241.037 145.274 241.901 146.466 242.135C147.987 242.431 148.979 243.439 149.754 244.551C150.142 245.105 150.503 245.729 150.859 246.361C150.94 246.507 151.023 246.653 151.104 246.8C151.178 246.929 151.251 247.061 151.325 247.192L163.864 237.408C161.692 235.072 158.319 230.285 156.427 223.648C154.769 217.832 150.986 214.997 148.499 213.917Z" fill="#032068"/>
<path d="M23.4913 286.753C32.5172 269.152 28.0043 244.82 24.6196 234.854C22.9272 241.248 19.3169 255.613 18.4143 261.932C17.5117 268.249 21.4229 281.112 23.4913 286.753Z" fill="#032068"/>
<path d="M179.752 305.933C193.291 296.004 213.976 296.907 222.625 298.6C221.685 302.736 219.24 312.225 206.265 317.216C191.599 322.857 182.949 311.763 179.752 305.933Z" fill="#032068"/>
<path d="M64.672 272.085C65.1233 263.512 70.5012 242.94 73.1337 233.725C69.1849 243.88 59.0308 260.804 59.0308 272.085C59.0308 281.112 67.3045 311.95 71.4414 326.241C68.9969 311.762 64.2206 280.66 64.672 272.085Z" fill="#032068"/>
<path d="M119.822 155.429C112.602 155.429 108.164 151.857 106.848 150.352L106.284 155.993C118.92 163.215 130.353 159.003 134.489 155.993L133.925 150.352C132.233 151.857 127.043 155.429 119.822 155.429Z" fill="#032068"/>
</svg>
