<svg width="85" height="45" viewBox="0 0 85 45" fill="none" xmlns="http://www.w3.org/2000/svg">
<path d="M0 24.25C0 21.3505 2.35051 19 5.25 19H72.4C79.3588 19 85 24.6412 85 31.6C85 36.2392 81.2392 40 76.6 40H15.75C7.05151 40 0 32.9485 0 24.25Z" fill="#FDFF87"/>
<path d="M16.1631 34H11.6953V12.584H23.9707V16.3047H16.1631V21.8271H23.4287V25.5332H16.1631V34ZM41.2705 34L39.7178 28.9023H31.9102L30.3574 34H25.4648L33.0234 12.4961H38.5752L46.1631 34H41.2705ZM38.6338 25.0938L37.0811 20.1133C36.9834 19.7812 36.8516 19.3564 36.6855 18.8389C36.5293 18.3115 36.3682 17.7793 36.2021 17.2422C36.0459 16.6953 35.9189 16.2217 35.8213 15.8213C35.7236 16.2217 35.5869 16.7197 35.4111 17.3154C35.2451 17.9014 35.084 18.458 34.9277 18.9854C34.7715 19.5127 34.6592 19.8887 34.5908 20.1133L33.0527 25.0938H38.6338ZM68.3115 23.2627C68.3115 24.8545 68.1211 26.3145 67.7402 27.6426C67.3691 28.9609 66.793 30.1035 66.0117 31.0703C65.2305 32.0371 64.2393 32.7939 63.0381 33.3408L68.1943 39.0977H62.3789L58.4531 34.293C58.3848 34.293 58.3262 34.293 58.2773 34.293C58.2285 34.293 58.1748 34.293 58.1162 34.293C56.3682 34.293 54.8545 34.0342 53.5752 33.5166C52.2959 32.9893 51.2363 32.2373 50.3965 31.2607C49.5664 30.2842 48.9463 29.1172 48.5361 27.7598C48.126 26.4023 47.9209 24.8936 47.9209 23.2334C47.9209 21.0166 48.2822 19.0879 49.0049 17.4473C49.7373 15.7969 50.8604 14.5176 52.374 13.6094C53.8877 12.7012 55.8115 12.2471 58.1455 12.2471C60.4697 12.2471 62.3789 12.7012 63.873 13.6094C65.377 14.5176 66.4902 15.7969 67.2129 17.4473C67.9453 19.0977 68.3115 21.0361 68.3115 23.2627ZM52.6816 23.2627C52.6816 24.7568 52.8672 26.0459 53.2383 27.1299C53.6191 28.2041 54.21 29.0342 55.0107 29.6201C55.8115 30.1963 56.8467 30.4844 58.1162 30.4844C59.4053 30.4844 60.4502 30.1963 61.251 29.6201C62.0518 29.0342 62.6328 28.2041 62.9941 27.1299C63.3652 26.0459 63.5508 24.7568 63.5508 23.2627C63.5508 21.0166 63.1309 19.249 62.291 17.96C61.4512 16.6709 60.0693 16.0264 58.1455 16.0264C56.8662 16.0264 55.8213 16.3193 55.0107 16.9053C54.21 17.4814 53.6191 18.3115 53.2383 19.3955C52.8672 20.4697 52.6816 21.7588 52.6816 23.2627Z" fill="#00227A"/>
</svg>
