<svg width="30" height="30" viewBox="0 0 30 30" fill="none" xmlns="http://www.w3.org/2000/svg">
<path d="M21.5625 1.875H8.4375C7.69158 1.875 6.97621 2.17132 6.44876 2.69876C5.92132 3.22621 5.625 3.94158 5.625 4.6875V25.3125C5.625 26.0584 5.92132 26.7738 6.44876 27.3012C6.97621 27.8287 7.69158 28.125 8.4375 28.125H21.5625C22.3084 28.125 23.0238 27.8287 23.5512 27.3012C24.0787 26.7738 24.375 26.0584 24.375 25.3125V4.6875C24.375 3.94158 24.0787 3.22621 23.5512 2.69876C23.0238 2.17132 22.3084 1.875 21.5625 1.875ZM22.5 25.3125C22.5 25.5611 22.4012 25.7996 22.2254 25.9754C22.0496 26.1512 21.8111 26.25 21.5625 26.25H8.4375C8.18886 26.25 7.9504 26.1512 7.77459 25.9754C7.59877 25.7996 7.5 25.5611 7.5 25.3125V4.6875C7.5 4.43886 7.59877 4.2004 7.77459 4.02459C7.9504 3.84877 8.18886 3.75 8.4375 3.75H21.5625C21.8111 3.75 22.0496 3.84877 22.2254 4.02459C22.4012 4.2004 22.5 4.43886 22.5 4.6875V25.3125Z" fill="white"/>
<path d="M19.6875 7.5H10.3125C10.0639 7.5 9.8254 7.59877 9.64959 7.77459C9.47377 7.9504 9.375 8.18886 9.375 8.4375C9.375 8.68614 9.47377 8.9246 9.64959 9.10041C9.8254 9.27623 10.0639 9.375 10.3125 9.375H19.6875C19.9361 9.375 20.1746 9.27623 20.3504 9.10041C20.5262 8.9246 20.625 8.68614 20.625 8.4375C20.625 8.18886 20.5262 7.9504 20.3504 7.77459C20.1746 7.59877 19.9361 7.5 19.6875 7.5ZM19.6875 11.25H10.3125C10.0639 11.25 9.8254 11.3488 9.64959 11.5246C9.47377 11.7004 9.375 11.9389 9.375 12.1875C9.375 12.4361 9.47377 12.6746 9.64959 12.8504C9.8254 13.0262 10.0639 13.125 10.3125 13.125H19.6875C19.9361 13.125 20.1746 13.0262 20.3504 12.8504C20.5262 12.6746 20.625 12.4361 20.625 12.1875C20.625 11.9389 20.5262 11.7004 20.3504 11.5246C20.1746 11.3488 19.9361 11.25 19.6875 11.25ZM19.6875 15H10.3125C10.0639 15 9.8254 15.0988 9.64959 15.2746C9.47377 15.4504 9.375 15.6889 9.375 15.9375C9.375 16.1861 9.47377 16.4246 9.64959 16.6004C9.8254 16.7762 10.0639 16.875 10.3125 16.875H19.6875C19.9361 16.875 20.1746 16.7762 20.3504 16.6004C20.5262 16.4246 20.625 16.1861 20.625 15.9375C20.625 15.6889 20.5262 15.4504 20.3504 15.2746C20.1746 15.0988 19.9361 15 19.6875 15ZM19.1869 21.2963C19.0148 21.1418 18.7918 21.0564 18.5606 21.0564C18.3294 21.0564 18.1064 21.1418 17.9344 21.2963L17.4375 21.75L16.9406 21.3019C16.7684 21.1467 16.5448 21.0608 16.313 21.0608C16.0811 21.0608 15.8575 21.1467 15.6853 21.3019L15.1894 21.7491L14.6934 21.3019C14.5072 21.1523 14.271 21.0794 14.0328 21.0981C13.7947 21.1168 13.5727 21.2257 13.4122 21.4025C13.2516 21.5793 13.1646 21.8108 13.1689 22.0496C13.1732 22.2884 13.2685 22.5166 13.4353 22.6875L14.5603 23.7C14.7325 23.8552 14.9561 23.9411 15.188 23.9411C15.4198 23.9411 15.6434 23.8552 15.8156 23.7L16.3097 23.2538L16.8056 23.7C16.9778 23.855 17.2012 23.9407 17.4328 23.9407C17.6644 23.9407 17.8878 23.855 18.06 23.7L18.5616 23.25L19.0622 23.7C19.1509 23.7945 19.2583 23.8696 19.3776 23.9205C19.4968 23.9714 19.6253 23.997 19.755 23.9957C19.8846 23.9943 20.0126 23.9662 20.1308 23.9129C20.249 23.8596 20.3549 23.7824 20.4417 23.6861C20.5285 23.5899 20.5945 23.4766 20.6353 23.3536C20.6762 23.2305 20.691 23.1003 20.679 22.9713C20.667 22.8422 20.6283 22.717 20.5655 22.6036C20.5026 22.4902 20.4169 22.3911 20.3137 22.3125L19.1869 21.2963Z" fill="white"/>
</svg>
