<svg width="30" height="30" viewBox="0 0 30 30" fill="none" xmlns="http://www.w3.org/2000/svg">
<path d="M23.099 14.1963L23.3333 18.3109C23.368 18.9098 23.0121 19.4654 22.2656 19.9776C21.5191 20.4897 20.4991 20.8955 19.2057 21.195C17.9123 21.4945 16.5104 21.6442 15 21.6442C13.4896 21.6442 12.0877 21.4945 10.7943 21.195C9.50086 20.8955 8.48089 20.4897 7.73437 19.9776C6.98785 19.4654 6.63194 18.9098 6.66666 18.3109L6.90104 14.1963L14.375 16.5531C14.566 16.6138 14.7743 16.6442 15 16.6442C15.2257 16.6442 15.434 16.6138 15.625 16.5531L23.099 14.1963ZM30 9.97756C30 10.1772 29.9045 10.3118 29.7135 10.3812L15.1302 14.9646C15.0955 14.9732 15.0521 14.9776 15 14.9776C14.9479 14.9776 14.9045 14.9732 14.8698 14.9646L6.38022 12.2823C6.00695 12.5774 5.69879 13.0613 5.45573 13.7341C5.21267 14.4068 5.0651 15.1816 5.01301 16.0583C5.55989 16.3708 5.83333 16.8439 5.83333 17.4776C5.83333 18.0765 5.5816 18.5409 5.07814 18.8708L5.83331 24.5088C5.85068 24.6303 5.81595 24.7388 5.72915 24.8343C5.65102 24.9298 5.54686 24.9776 5.41666 24.9776H2.91666C2.78646 24.9776 2.6823 24.9298 2.60417 24.8343C2.51737 24.7388 2.48264 24.6303 2.49999 24.5088L3.2552 18.8708C2.75174 18.5409 2.50001 18.0765 2.50001 17.4776C2.50001 16.8439 2.78213 16.3621 3.34636 16.0323C3.44184 14.2354 3.86718 12.8031 4.62239 11.7354L0.286456 10.3812C0.0954855 10.3118 0 10.1772 0 9.97756C0 9.7779 0.0954855 9.64335 0.286456 9.57392L14.8698 4.99056C14.9045 4.98188 14.9479 4.97754 15 4.97754C15.0521 4.97754 15.0955 4.98188 15.1302 4.99056L29.7135 9.5739C29.9045 9.64334 30 9.7779 30 9.97756Z" fill="white"/>
</svg>
