<svg width="30" height="30" viewBox="0 0 30 30" fill="none" xmlns="http://www.w3.org/2000/svg">
<path d="M24.6428 16.607V24.6427C24.6428 24.9329 24.5368 25.184 24.3248 25.3961C24.1127 25.6081 23.8616 25.7141 23.5714 25.7141H17.1428V19.2856H12.8571V25.7141H6.42856C6.13838 25.7141 5.88726 25.6081 5.67521 25.3961C5.46316 25.184 5.35713 24.9329 5.35713 24.6427V16.607C5.35713 16.5958 5.35992 16.5791 5.3655 16.5568C5.37108 16.5345 5.37387 16.5177 5.37387 16.5066L15 8.57129L24.6261 16.5066C24.6373 16.5289 24.6428 16.5624 24.6428 16.607ZM28.3761 15.4519L27.3382 16.6907C27.2489 16.7912 27.1317 16.8525 26.9866 16.8749H26.9364C26.7913 16.8749 26.6741 16.8358 26.5848 16.7577L15 7.09807L3.41516 16.7577C3.28124 16.847 3.14731 16.886 3.01338 16.8749C2.86829 16.8525 2.7511 16.7912 2.66182 16.6907L1.62387 15.4519C1.53458 15.3403 1.49552 15.2091 1.50668 15.0585C1.51784 14.9078 1.57923 14.7878 1.69083 14.6985L13.7277 4.67062C14.0848 4.38044 14.5089 4.23535 15 4.23535C15.4911 4.23535 15.9152 4.38044 16.2723 4.67062L20.3571 8.0858V4.82129C20.3571 4.66504 20.4074 4.53669 20.5078 4.43624C20.6082 4.3358 20.7366 4.28557 20.8928 4.28557H24.1071C24.2634 4.28557 24.3917 4.3358 24.4922 4.43624C24.5926 4.53669 24.6428 4.66504 24.6428 4.82129V11.6516L28.3091 14.6985C28.4207 14.7878 28.4821 14.9078 28.4933 15.0585C28.5045 15.2091 28.4654 15.3403 28.3761 15.4519Z" fill="white"/>
</svg>
