<svg width="30" height="30" viewBox="0 0 30 30" fill="none" xmlns="http://www.w3.org/2000/svg">
<path d="M4.02188 14.3346L7.61251 10.7439C7.97813 10.3783 8.56876 10.3783 8.93438 10.7439C9.30001 11.1096 9.30001 11.7002 8.93438 12.0658L6.94688 14.0533H15.4125C15.9281 14.0533 16.35 14.4752 16.35 14.9908C16.35 15.5064 15.9281 15.9283 15.4125 15.9283H6.96563L8.92501 17.8596C9.29063 18.2252 9.30001 18.8158 8.92501 19.1814C8.73751 19.3689 8.50313 19.4627 8.25938 19.4627C8.01563 19.4627 7.78126 19.3689 7.60313 19.1908L4.01251 15.6564C3.83438 15.4783 3.73126 15.2439 3.73126 14.9908C3.73126 14.7377 3.82501 14.5033 4.00313 14.3252L4.02188 14.3346Z" fill="white"/>
<path d="M11.5687 20.3062C12.9844 21.7218 14.8687 22.4999 16.875 22.4999C18.8812 22.4999 20.7656 21.7218 22.1812 20.3062C25.1062 17.3812 25.1062 12.628 22.1812 9.70303C20.7656 8.2874 18.8812 7.50928 16.875 7.50928C14.8687 7.50928 12.9844 8.2874 11.5687 9.70303C11.2031 10.0687 10.6125 10.0687 10.2469 9.70303C9.88124 9.3374 9.88124 8.74678 10.2469 8.38115C12.0187 6.60928 14.3719 5.63428 16.875 5.63428C19.3781 5.63428 21.7312 6.60928 23.5031 8.38115C27.1594 12.0374 27.1594 17.9812 23.5031 21.6374C21.7312 23.4093 19.3781 24.3843 16.875 24.3843C14.3719 24.3843 12.0187 23.4093 10.2469 21.6374C9.88124 21.2718 9.88124 20.6812 10.2469 20.3155C10.6125 19.9499 11.2031 19.9499 11.5687 20.3155V20.3062Z" fill="white"/>
</svg>
