<svg width="539" height="661" viewBox="0 0 539 661" fill="none" xmlns="http://www.w3.org/2000/svg">
<path d="M108.992 9.37012L37.0403 593.708L520.267 220.618L108.992 9.37012Z" fill="#FCC75F"/>
<path d="M80.5647 555.637C80.5647 555.637 470.62 557.408 467.457 558.469C464.293 559.529 311.986 139.896 311.986 139.896L53.6658 161.123L80.5647 555.637Z" fill="black"/>
<path d="M218.38 325.909L118.137 352.494L118.367 351.459C120.841 340.347 132.885 286.343 139.765 257.39C124.349 252.224 80.5435 234.574 115.378 210.396C156.553 181.814 187.705 196.861 188.143 224.242C196.79 225.439 205.229 230.094 211.836 240.852C234.265 277.297 218.38 325.909 218.38 325.909Z" fill="#FD612E"/>
<path d="M118.137 352.493L117.933 353.498V352.561L118.137 352.493Z" fill="#FD612E"/>
<path d="M190.894 326.441L166.643 327.467L171.194 295.342L172.859 283.574L182.783 282.918L183.516 286.853L190.894 326.441Z" fill="#F6F4E7"/>
<path d="M183.516 286.853L171.194 295.342L172.859 283.574L182.783 282.918L183.516 286.853Z" fill="black"/>
<path d="M180.212 285.048C191.343 285.048 200.367 276.021 200.367 264.886C200.367 253.751 191.343 244.724 180.212 244.724C169.08 244.724 160.057 253.751 160.057 264.886C160.057 276.021 169.08 285.048 180.212 285.048Z" fill="#F6F4E7"/>
<path d="M207.634 259.536C193.84 269.051 180.527 265.499 170.781 259.694C165.791 265.81 157.987 273.578 149.689 274.958C149.689 274.958 144.01 253.663 158.549 250.017C157.406 248.881 156.321 247.689 155.297 246.444C166.979 231.486 194.082 242.705 194.082 242.705L207.634 259.536Z" fill="#FD612E"/>
<path d="M251.878 465.801L249.681 462.394L265.302 622.009L94.3804 620.339L98.6379 336.429L148.761 327.519L146.441 312.186L169.449 313.387L175.409 322.783L192.414 319.759L194.84 312.199L216.09 307.472L215.664 315.632L234.993 312.195L236.27 325.219C245.407 345.13 265.668 395.663 265.668 395.663L383.175 391.83L376.619 430.281L251.878 465.801Z" fill="#8964FE"/>
<path d="M97.1988 419.483L140.344 546.543L255.425 512.79L94.0908 586.467L97.1988 419.483Z" fill="black"/>
<path d="M161.359 386.677L161.47 387.103L178.649 452.594L211.772 448.484C211.772 448.484 183.801 439.957 161.359 386.677Z" fill="black"/>
<path d="M197.327 160.032L320.215 138.064V190.885L234.239 207.712L238.446 174.057L197.327 183.87V160.032Z" stroke="white" strokeWidth="4" stroke-miterlimit="10"/>
<path d="M273.753 266.266L323.753 289.171L287.773 339.184L273.753 318.149L290.575 298.519L272.821 284.494L273.753 266.266Z" stroke="white" strokeWidth="4" stroke-miterlimit="10"/>
<path d="M237.769 340.104L248.694 447.585L316.758 444.216L318.044 446.069L324.848 445.068L350.823 415.302L257.153 431.013L237.769 340.104Z" fill="black"/>
<path d="M40.1397 321.773L31.812 313.255C32.5102 312.565 101.814 243.833 73.791 194.39C59.9882 170.033 63.8966 142.49 85.0989 114.746C100.511 94.5757 119.517 81.4664 120.317 80.917L127.044 90.7638L123.68 85.8404L127.048 90.7596C126.865 90.8874 108.643 103.486 94.4101 122.2C76.2093 146.084 72.7735 168.406 84.1623 188.504C91.8598 202.086 94.1802 217.738 91.0552 235.021C88.6327 248.416 82.9319 262.803 74.1061 277.786C59.2942 302.935 40.9146 321.019 40.1397 321.773Z" fill="#FD612E"/>
<path d="M380.195 97.957C380.195 97.957 301.857 184.841 385.73 215.506C469.603 246.171 456.404 304.52 415.958 310.056" stroke="#FD612E" strokeWidth="4" stroke-miterlimit="10"/>
<path d="M47.0454 516.832C47.0454 516.832 22.3519 688.045 121.552 635.233C220.752 582.421 253.96 550.904 322.08 598.605" stroke="#FD612E" strokeWidth="4" stroke-miterlimit="10"/>
<path d="M185.627 93.6982C188.449 93.6982 190.736 91.41 190.736 88.5874C190.736 85.7648 188.449 83.4766 185.627 83.4766C182.805 83.4766 180.518 85.7648 180.518 88.5874C180.518 91.41 182.805 93.6982 185.627 93.6982Z" fill="#1E1E1E"/>
<path d="M427.453 183.563C430.275 183.563 432.562 181.275 432.562 178.453C432.562 175.63 430.275 173.342 427.453 173.342C424.632 173.342 422.344 175.63 422.344 178.453C422.344 181.275 424.632 183.563 427.453 183.563Z" fill="#1E1E1E"/>
<path d="M317.184 106.475C320.476 106.475 323.145 103.806 323.145 100.512C323.145 97.2194 320.476 94.5498 317.184 94.5498C313.892 94.5498 311.224 97.2194 311.224 100.512C311.224 103.806 313.892 106.475 317.184 106.475Z" fill="#1E1E1E"/>
<path d="M212.875 64.3107L286.53 43.0156L269.926 123.511L212.875 64.3107Z" fill="#8964FE"/>
<path d="M16.1785 384.59L67.0429 330.087L60.8823 465.937L16.1785 384.59Z" fill="#8964FE"/>
<path d="M498.554 228.283H339.323V259.8H498.554V228.283Z" fill="black"/>
<path d="M495.148 226.154H335.917V257.671H495.148V226.154Z" fill="#FD612E"/>
<path d="M397.072 339.056L399.707 329.18L480.412 391.711L467.853 438.807L371.182 413.006L397.072 339.056Z" fill="#FCC75F"/>
<path d="M390.486 339.81L391.882 334.584L476.606 390.654L452.977 487.977L378.492 469.859L378.803 371.207L390.486 339.81Z" fill="#8964FE"/>
<path d="M384.402 343.609L386.045 337.434L473.435 390.015L441.324 500.294L349.788 476.746C349.788 476.746 384.619 342.783 384.402 343.609Z" fill="black"/>
<path d="M376.393 347.2L378.147 340.615L386.764 345.117L472.059 389.649L455.838 450.472L354.314 423.381L376.393 347.2Z" fill="#8964FE"/>
<path d="M423.732 567.89L325.695 510.87L369.922 345.032L471.578 388.474L423.732 567.89Z" fill="#FCC75F"/>
<path d="M471.603 388.504L423.857 567.509L432.907 569.924L480.653 390.92L471.603 388.504Z" fill="#FD612E"/>
<path d="M372.425 451.171L413.778 428.3L366.946 442.551L405.238 415.025L360.751 438.602L386.202 406.098L344.956 433.168L358.056 407.116L324.899 445.106L307.907 447.696C313.795 457.534 317.963 468.139 321.599 478.995L348.34 469.37L417.427 448.586L372.425 451.171Z" fill="#F6F4E7"/>
<path d="M118.933 319.392C107.583 321.445 94.3293 332.518 89.2076 338.366C85.1289 343.021 81.6292 348.307 79.8411 354.227C74.9577 370.313 87.3556 391.753 92.5369 406.672C94.9552 413.125 97.2202 420.216 99.0594 425.463L106.399 446.601C110.865 459.459 115.212 472.351 119.627 485.23C120.854 488.812 140.136 546.449 140.566 546.321L343.223 486.853L316.826 444.352L181.617 450.438C176.593 450.668 167.269 408.921 165.715 404.113C159.187 383.953 151.94 364.044 143.976 344.384C139.714 333.937 133.234 316.807 118.933 319.392Z" fill="#8964FE"/>
</svg>
