<svg width="30" height="30" viewBox="0 0 30 30" fill="none" xmlns="http://www.w3.org/2000/svg">
<path d="M12.3106 19.4373C14.1102 19.2923 15.918 19.2923 17.7176 19.4373C18.6976 19.4944 19.6729 19.617 20.6374 19.8043C22.7245 20.2269 24.0871 20.9164 24.6711 22.0285C25.1096 22.8964 25.1096 23.9297 24.6711 24.7976C24.0871 25.9097 22.7786 26.6437 20.6158 27.0218C19.652 27.2161 18.6765 27.3425 17.696 27.3999C16.7876 27.5 15.8792 27.5 14.96 27.5H13.3055C12.9594 27.4555 12.6242 27.4333 12.2998 27.4333C11.3192 27.3828 10.3435 27.2602 9.37997 27.0663C7.29285 26.6659 5.93028 25.9542 5.34632 24.8421C5.12089 24.4113 5.00204 23.93 5.00013 23.4408C4.99557 22.9486 5.11082 22.4631 5.3355 22.0285C5.90865 20.9164 7.27122 20.1935 9.37997 19.8043C10.3477 19.6143 11.3268 19.4917 12.3106 19.4373ZM15.0033 2.5C18.6286 2.5 21.5674 5.52228 21.5674 9.25044C21.5674 12.9786 18.6286 16.0009 15.0033 16.0009C11.378 16.0009 8.43914 12.9786 8.43914 9.25044C8.43914 5.52228 11.378 2.5 15.0033 2.5Z" fill="white"/>
</svg>
