<svg width="200" height="200" viewBox="0 0 200 200" fill="none" xmlns="http://www.w3.org/2000/svg">
<path d="M234.667 193.667C237.333 184 235.417 170.083 232.833 165C227.583 154.75 217.25 152.917 208.417 145.583C191.667 131.667 193.417 100.417 190.583 90.3335C180.667 55.2501 137.417 59.6668 121.417 82.5835C118.75 86.4168 110.167 99.5835 94.1666 104.5C75.9999 110 59.9166 102.833 42.5833 112.167C37.3333 115 31.8333 119.5 27.9166 123.917C22.3333 130.167 18.2499 137.667 16.0833 145.75C11.7499 161.917 15.0833 179.667 24.0833 193.667H234.667Z" fill="#EFDEC9"/>
<path d="M188.75 89.0835H120.5V179.833H188.75V89.0835Z" fill="#DBCAC1"/>
<path opacity="0.5" d="M188.667 119.5V118.75H167.167V89.0835H166.417V118.75H143.083V89.0835H142.333V118.75H120.417V119.5H142.333V151.833H120.417V152.583H142.333V179.833H143.083V152.583H166.417V179.833H167.167V152.583H188.667V151.833H167.167V119.5H188.667ZM166.5 151.833H143.167V119.5H166.5V151.833Z" fill="white"/>
<path d="M130.75 84.9998L112.417 84.4998C111.25 79.6665 110 73.9165 110.167 72.4165C110.333 71.4165 110.667 70.9165 111.083 70.7498C112.083 70.3331 112.917 69.5831 113.417 68.7498C114.583 66.7498 117.583 64.2498 124.833 65.0831C129.417 65.5831 132.75 68.7498 132.917 69.9998C133.083 71.2498 132.583 72.1665 132.583 72.1665C132.583 72.1665 134.083 72.4165 133.417 75.0831C133.25 76.4165 132 80.9165 130.75 84.9998Z" fill="#77434E"/>
<path d="M126.167 84.5835H117.667V96.9168H126.167V84.5835Z" fill="#F8AD9C"/>
<path d="M113.667 85.0832C113.667 85.0832 112.083 84.8332 110.667 83.5832C109.25 82.3332 109.583 80.2498 111.083 79.7498C112.583 79.3332 113.833 80.8332 113.833 80.8332L114.5 73.4998C114.583 72.4165 115.5 71.6665 116.667 71.6665L127.833 71.9998C129 71.9998 129.833 72.9165 129.833 73.9998L129.75 81.0832C129.833 81.0832 132.333 78.5832 133.5 80.7498C135.25 83.9998 129.833 85.7498 129.833 85.7498C129.833 85.7498 126.833 92.1665 122.167 92.0832C116.833 91.9165 113.667 85.0832 113.667 85.0832Z" fill="#F8AD9C"/>
<path d="M117.585 77.4965C119.058 77.471 120.248 77.2638 120.244 77.0337C120.24 76.8037 119.043 76.6378 117.571 76.6633C116.098 76.6888 114.908 76.896 114.912 77.1261C114.916 77.3561 116.113 77.522 117.585 77.4965Z" fill="#4D1E33"/>
<path d="M128.942 77.3774C128.952 77.1475 127.804 76.9124 126.379 76.8523C124.953 76.7923 123.79 76.93 123.78 77.1599C123.77 77.3898 124.918 77.6249 126.343 77.6849C127.769 77.745 128.932 77.6073 128.942 77.3774Z" fill="#4D1E33"/>
<path d="M121.583 91.9998C120.25 91.9165 118.917 91.4998 117.75 90.7498C117.583 90.6665 117.583 90.4998 117.667 90.3332C117.75 90.2498 117.917 90.1665 118.083 90.2499C120.417 91.7499 123.417 91.8332 125.75 90.3332C125.917 90.2498 126.083 90.2498 126.167 90.4165C126.25 90.5832 126.25 90.7498 126.083 90.8332C124.667 91.6665 123.167 92.0832 121.583 91.9998Z" fill="#D08487"/>
<path d="M112.917 82.2502C112.667 81.3335 111.417 81.0835 111.417 81.0835C111.417 81.0835 111.333 81.0835 111.333 81.1668C111.333 81.1668 111.333 81.2502 111.417 81.2502C111.417 81.2502 112.583 81.4168 112.833 82.2502C112.833 82.3335 112.917 82.5002 112.917 82.5835C112.667 82.6668 112 83.0002 111.75 82.8335C111.417 82.6668 111.417 82.4168 111.417 82.4168C111.417 82.4168 111.417 82.3335 111.333 82.3335C111.333 82.3335 111.25 82.3335 111.25 82.4168C111.25 82.4168 111.25 82.8335 111.667 83.0002C111.75 83.0002 111.833 83.0835 111.917 83.0835C112.25 83.0835 112.75 82.8335 112.917 82.8335C113 83.5002 112.833 84.0835 112.833 84.0835C112.833 84.0835 112.833 84.1668 112.917 84.1668C112.917 84.1668 113 84.1668 113 84.0835C112.917 84.0002 113.167 83.1668 112.917 82.2502Z" fill="#D08487"/>
<path d="M131.083 82.2502C131.333 81.3335 132.583 81.0835 132.583 81.0835C132.583 81.0835 132.667 81.0835 132.667 81.1668C132.667 81.1668 132.667 81.2502 132.583 81.2502C132.583 81.2502 131.417 81.4168 131.167 82.2502C131.167 82.3335 131.083 82.5002 131.083 82.5835C131.333 82.6668 132 83.0002 132.25 82.8335C132.583 82.6668 132.583 82.4168 132.583 82.4168C132.583 82.4168 132.583 82.3335 132.667 82.3335C132.667 82.3335 132.75 82.3335 132.75 82.4168C132.75 82.4168 132.75 82.8335 132.333 83.0002C132.25 83.0002 132.167 83.0835 132.083 83.0835C131.75 83.0835 131.25 82.8335 131.083 82.8335C131 83.5002 131.167 84.0835 131.167 84.0835C131.167 84.0835 131.167 84.1668 131.083 84.1668C131.083 84.1668 131 84.1668 131 84.0835C131.083 84.0002 130.833 83.1668 131.083 82.2502Z" fill="#D08487"/>
<path d="M130.667 69.5001C133.083 69.5834 134.833 71.8334 134.25 74.2501C134.25 74.3334 134.167 74.5001 134 74.5001C133.167 74.9167 132.667 75.6667 132.667 76.5834L132.583 78.7501C132.583 78.7501 130.083 78.0001 129.917 76.6667C129.75 75.3334 129.75 75.3334 129.75 75.3334C129.75 75.3334 125.417 75.9167 122.25 74.7501C119.083 73.5834 117.583 72.1667 117.583 72.1667C117.083 73.2501 116 74.0834 114.667 74.1667H114.417L113.333 77.5001H112.25C112.25 77.5001 112.083 76.3334 111.833 74.9167C111.417 71.7501 113.917 69.0001 117.083 69.0834L130.667 69.5001Z" fill="#77434E"/>
<path d="M126.5 81.5002C126.546 81.5002 126.583 81.4629 126.583 81.4168C126.583 81.3708 126.546 81.3335 126.5 81.3335C126.454 81.3335 126.417 81.3708 126.417 81.4168C126.417 81.4629 126.454 81.5002 126.5 81.5002Z" fill="#CF7492"/>
<path d="M125.917 81.8332C125.963 81.8332 126 81.7959 126 81.7498C126 81.7038 125.963 81.6665 125.917 81.6665C125.871 81.6665 125.833 81.7038 125.833 81.7498C125.833 81.7959 125.871 81.8332 125.917 81.8332Z" fill="#CF7492"/>
<path d="M126.333 82.0832C126.379 82.0832 126.417 82.0459 126.417 81.9998C126.417 81.9538 126.379 81.9165 126.333 81.9165C126.287 81.9165 126.25 81.9538 126.25 81.9998C126.25 82.0459 126.287 82.0832 126.333 82.0832Z" fill="#CF7492"/>
<path d="M127.25 81.9167C127.296 81.9167 127.333 81.8794 127.333 81.8333C127.333 81.7873 127.296 81.75 127.25 81.75C127.204 81.75 127.167 81.7873 127.167 81.8333C127.167 81.8794 127.204 81.9167 127.25 81.9167Z" fill="#CF7492"/>
<path d="M127 82.6667C127.046 82.6667 127.083 82.6294 127.083 82.5833C127.083 82.5373 127.046 82.5 127 82.5C126.954 82.5 126.917 82.5373 126.917 82.5833C126.917 82.6294 126.954 82.6667 127 82.6667Z" fill="#CF7492"/>
<path d="M126.5 83.3332C126.546 83.3332 126.583 83.2959 126.583 83.2498C126.583 83.2038 126.546 83.1665 126.5 83.1665C126.454 83.1665 126.417 83.2038 126.417 83.2498C126.417 83.2959 126.454 83.3332 126.5 83.3332Z" fill="#CF7492"/>
<path d="M125.917 82.6667C125.963 82.6667 126 82.6294 126 82.5833C126 82.5373 125.963 82.5 125.917 82.5C125.871 82.5 125.833 82.5373 125.833 82.5833C125.833 82.6294 125.871 82.6667 125.917 82.6667Z" fill="#CF7492"/>
<path d="M116.667 81.5002C116.713 81.5002 116.75 81.4629 116.75 81.4168C116.75 81.3708 116.713 81.3335 116.667 81.3335C116.621 81.3335 116.583 81.3708 116.583 81.4168C116.583 81.4629 116.621 81.5002 116.667 81.5002Z" fill="#CF7492"/>
<path d="M117.25 81.8337C117.296 81.8337 117.333 81.7963 117.333 81.7503C117.333 81.7043 117.296 81.667 117.25 81.667C117.204 81.667 117.167 81.7043 117.167 81.7503C117.167 81.7963 117.204 81.8337 117.25 81.8337Z" fill="#CF7492"/>
<path d="M116.833 82.0837C116.879 82.0837 116.917 82.0463 116.917 82.0003C116.917 81.9543 116.879 81.917 116.833 81.917C116.787 81.917 116.75 81.9543 116.75 82.0003C116.75 82.0463 116.787 82.0837 116.833 82.0837Z" fill="#CF7492"/>
<path d="M115.917 81.9167C115.963 81.9167 116 81.8794 116 81.8333C116 81.7873 115.963 81.75 115.917 81.75C115.871 81.75 115.833 81.7873 115.833 81.8333C115.833 81.8794 115.871 81.9167 115.917 81.9167Z" fill="#CF7492"/>
<path d="M116.167 82.6667C116.213 82.6667 116.25 82.6294 116.25 82.5833C116.25 82.5373 116.213 82.5 116.167 82.5C116.121 82.5 116.083 82.5373 116.083 82.5833C116.083 82.6294 116.121 82.6667 116.167 82.6667Z" fill="#CF7492"/>
<path d="M116.667 83.3337C116.713 83.3337 116.75 83.2963 116.75 83.2503C116.75 83.2043 116.713 83.167 116.667 83.167C116.621 83.167 116.583 83.2043 116.583 83.2503C116.583 83.2963 116.621 83.3337 116.667 83.3337Z" fill="#CF7492"/>
<path d="M117.25 82.6667C117.296 82.6667 117.333 82.6294 117.333 82.5833C117.333 82.5373 117.296 82.5 117.25 82.5C117.204 82.5 117.167 82.5373 117.167 82.5833C117.167 82.6294 117.204 82.6667 117.25 82.6667Z" fill="#CF7492"/>
<path d="M111.25 73.8332C110.75 73.4166 110.333 72.5832 110.333 71.8332C110.333 71.3332 110.5 70.8332 110.833 70.5832L111 70.4166C111.75 69.7499 113 68.8332 113.417 67.9999C114 66.8332 115.833 65.2499 118.167 64.4999C119.833 63.9999 122.333 63.7499 125.083 65.2499L124.917 65.4999C122.167 63.9999 119.75 64.2499 118.167 64.7499C115.917 65.4166 114.167 66.9166 113.583 68.0832C113.167 68.9999 111.917 69.9999 111.083 70.6666L110.917 70.8332C110.5 71.1666 110.5 71.5832 110.5 71.9166C110.5 72.6666 110.917 73.4166 111.333 73.6666L111.25 73.8332Z" fill="#74444A"/>
<path d="M116.167 80.2498C116.167 80.2498 116.667 80.9165 117.75 80.8332C118.833 80.7498 118.917 80.4165 119.25 80.4165C119.583 80.4165 119.167 79.7498 118.5 79.6665C116.833 79.2498 116.167 80.2498 116.167 80.2498Z" fill="white"/>
<path d="M119.333 80.25C119.5 80.25 119.583 80.0833 119.417 80C119.167 79.75 118.667 79.5 117.917 79.5C116.5 79.4167 115.917 80.25 115.917 80.25L116.083 80.3333C116.083 80.3333 116.75 79.75 117.583 79.6667C118.5 79.5 119.333 80.25 119.333 80.25Z" fill="#2B1D30"/>
<path d="M116.833 79.9999C116.833 80.4166 117.25 80.7499 117.75 80.7499C118.25 80.7499 118.667 80.4166 118.667 80.0832C118.667 79.6666 118.25 79.5832 117.75 79.5832C117.25 79.4999 116.833 79.5832 116.833 79.9999Z" fill="#2B1D30"/>
<path d="M118.349 80.0365C118.351 79.9444 118.278 79.8682 118.186 79.8662C118.094 79.8642 118.017 79.9371 118.015 80.0292C118.013 80.1212 118.086 80.1974 118.178 80.1995C118.27 80.2015 118.347 80.1285 118.349 80.0365Z" fill="white"/>
<path d="M127.417 80.2498C127.417 80.2498 126.917 80.9165 125.833 80.8332C124.75 80.8332 124.667 80.4165 124.333 80.4165C124 80.4165 124.417 79.7498 125.083 79.6665C126.75 79.2498 127.417 80.2498 127.417 80.2498Z" fill="white"/>
<path d="M124.25 80.25C124.083 80.25 124 80.0833 124.167 80C124.417 79.75 124.917 79.5 125.667 79.5C127.083 79.4167 127.667 80.25 127.667 80.25L127.5 80.3333C127.5 80.3333 126.833 79.75 126 79.6667C125.083 79.5 124.25 80.25 124.25 80.25Z" fill="#2B1D30"/>
<path d="M126.667 79.9999C126.667 80.4166 126.25 80.7499 125.75 80.7499C125.25 80.7499 124.833 80.4166 124.833 80.0832C124.833 79.7499 125.25 79.5832 125.75 79.5832C126.25 79.4999 126.667 79.5832 126.667 79.9999Z" fill="#2B1D30"/>
<path d="M125.426 80.253C125.518 80.2509 125.591 80.1747 125.589 80.0827C125.587 79.9906 125.511 79.9177 125.419 79.9197C125.327 79.9217 125.254 79.9979 125.256 80.09C125.258 80.182 125.334 80.255 125.426 80.253Z" fill="white"/>
<path d="M117.75 94.0833L113.5 99.7499L115.083 102.917L116.5 104.5L126.667 104.75L128.167 102.5L130.083 99.7499L126.167 94.0833H117.75Z" fill="#F8AD9C"/>
<path d="M125.917 82.3332C125.75 82.2498 125.583 82.2498 125.417 82.1665C123.167 81.4165 120.75 81.4165 118.5 82.1665C118.333 82.2498 118.167 82.2498 118 82.3332C117.25 82.5832 116.583 82.7498 116 82.8332C115.333 82.9165 114.833 83.5832 114.917 84.2498L115.25 87.3332C115.25 87.5832 115.333 87.8332 115.5 87.9998C115.833 88.5832 116.667 89.6665 118.083 90.6665C118.083 90.6665 118.083 90.6665 118.167 90.7498C120.5 92.4165 123.667 92.4165 126 90.7498C126 90.7498 126 90.7498 126.083 90.6665C127.417 89.6665 128.333 88.5832 128.667 87.9998C128.833 87.7498 128.917 87.4998 129 87.1665L129.167 84.1665C129.25 83.4998 128.75 82.8332 128 82.7498C127.333 82.7498 126.667 82.6665 125.917 82.3332Z" fill="white"/>
<path d="M128.417 83.8332L130 79.9165" stroke="white" strokeWidth="0.323" stroke-miterlimit="10" strokeLinecap="round" strokeLinejoin="round"/>
<path d="M115.583 83.8332L113.5 80.6665" stroke="white" strokeWidth="0.323" stroke-miterlimit="10" strokeLinecap="round" strokeLinejoin="round"/>
<path d="M128.583 87.5832L130 84.9165" stroke="white" strokeWidth="0.323" stroke-miterlimit="10" strokeLinecap="round" strokeLinejoin="round"/>
<path d="M115.583 87.583L113.667 85.333" stroke="white" strokeWidth="0.323" stroke-miterlimit="10" strokeLinecap="round" strokeLinejoin="round"/>
<path d="M146.417 68.4168V67.3335L123.583 58.3335L95 65.5835V67.1668L123.583 59.5835L146.417 68.4168Z" fill="#434FA1"/>
<path d="M132.583 69.9168L146.417 68.4168L123.583 59.5835L95 67.1668L108.167 69.2502L132.583 69.9168Z" fill="#5E6DB2"/>
<path d="M124.167 64.417H122.417H120.667C117 64.417 113.167 66.5837 110.25 69.5837V73.7503C110.25 74.417 111 74.7503 111.5 74.2503C114.167 71.7503 117.417 70.5003 120.667 70.417C121.083 70.417 122.417 70.3337 122.417 70.3337C122.417 70.3337 123.75 70.417 124.167 70.417C127.417 70.5003 130.667 71.7503 133.333 74.2503C133.833 74.667 134.583 74.3337 134.583 73.7503V69.5837C131.667 66.5837 127.833 64.417 124.167 64.417Z" fill="#434FA1"/>
<path d="M136.417 63.4165C136.417 63.4165 139.417 67.7498 139.667 75.7498C140 83.7498 140 83.7498 140 83.7498" stroke="#FBB325" strokeWidth="0.646" stroke-miterlimit="10"/>
<path d="M140.417 84.8332L140.167 84.7499C140 84.6666 139.833 84.6666 139.667 84.7499L139.417 84.8332C139 84.9999 138.583 84.6666 138.667 84.2499L138.75 83.9999C138.75 83.8332 138.75 83.6666 138.583 83.4999L138.417 83.3332C138.083 82.9999 138.333 82.4166 138.75 82.4166H139C139.167 82.4166 139.333 82.3332 139.417 82.1666L139.5 81.9166C139.75 81.4999 140.333 81.4999 140.5 81.9999L140.583 82.2499C140.667 82.4166 140.833 82.4999 141 82.5832L141.25 82.6666C141.667 82.7499 141.833 83.3332 141.5 83.5832L141.333 83.7499C141.167 83.8332 141.167 84.0832 141.167 84.2499V84.4999C141.25 84.7499 140.75 85.0832 140.417 84.8332Z" fill="#FBB325"/>
<path d="M184.334 61.1668C184.334 61.1668 182.417 59.0834 179.75 58.9167C177.084 58.7501 172.584 58.1668 171.25 56.7501C169.834 55.3334 170.084 49.7501 177.417 53.0834C184.834 56.4168 184.334 61.1668 184.334 61.1668Z" fill="#DD9E91"/>
<path d="M170.084 54.3334C170.417 55.2501 173.334 56.6668 175.334 57.0834C177.334 57.5001 178.084 54.9168 178.084 54.9168C178.084 54.9168 178.084 54.9168 178.834 55.8334C179.584 56.7501 183 61.6668 183 61.6668L181.167 80.0834C185.75 81.0834 190.167 82.4168 194.5 84.0001L194.834 72.0834C195 65.1668 192.5 58.4168 187.917 53.2501L187.834 53.1668C184.75 49.8334 179.167 45.0834 177.25 43.4168C175.334 41.6668 168.5 49.5001 168.584 50.7501C168.667 52.0001 170.25 53.1668 170.25 53.1668C170.25 53.1668 169.667 53.5001 170.084 54.3334Z" fill="#F8AD9C"/>
<path d="M170.083 53.0833C170.083 53.0833 172.917 48.25 175.083 46.6667C176.25 45.75 176.917 45.75 176.917 45.75" stroke="#D08487" strokeWidth="0.646" stroke-miterlimit="10" strokeLinecap="round" strokeLinejoin="round"/>
<path d="M177.583 48.4165C177.583 48.4165 174.167 52.0832 173.417 53.4998C172.833 54.6665 173.417 56.3332 173.417 56.3332" stroke="#D08487" strokeWidth="0.646" stroke-miterlimit="10" strokeLinecap="round" strokeLinejoin="round"/>
<path d="M178.25 54.5002L177.333 53.5002L177.5 51.5835L177 53.6668L176.25 53.8335L175.75 52.3335V54.0835L174.75 54.7502L176.417 54.0835C176.417 54.0835 177.167 54.0002 177.5 54.2502C177.833 54.5002 178.25 54.5002 178.25 54.5002Z" fill="#D08487"/>
<path d="M56.9167 61.1668C56.9167 61.1668 58.8334 59.0834 61.5 58.9167C64.1667 58.6667 68.6667 58.1668 70 56.7501C71.4167 55.3334 71.1667 49.7501 63.8334 53.0834C56.5 56.4168 56.9167 61.1668 56.9167 61.1668Z" fill="#DD9E91"/>
<path d="M71.25 54.3333C70.9167 55.2499 68 56.6666 66 57.0833C64 57.4999 63.25 54.9166 63.25 54.9166C63.25 54.9166 63.25 54.9166 62.5 55.8333C61.75 56.7499 58.3334 61.6666 58.3334 61.6666L60.1667 80.0833C55.5833 81.0833 51.1667 82.4166 46.8334 83.9999L46.5 72.0833C46.3334 65.1666 48.8334 58.4166 53.4167 53.2499L53.5 53.1666C56.5833 49.7499 62.1667 44.9999 64.1667 43.3333C66.0833 41.5833 72.9167 49.4166 72.8333 50.6666C72.75 51.9166 71.1667 53.0833 71.1667 53.0833C71.1667 53.0833 71.5833 53.4999 71.25 54.3333Z" fill="#F8AD9C"/>
<path d="M71.1668 53.0833C71.1668 53.0833 68.3335 48.25 66.1668 46.6667C65.0002 45.75 64.3335 45.75 64.3335 45.75" stroke="#D08487" strokeWidth="0.646" stroke-miterlimit="10" strokeLinecap="round" strokeLinejoin="round"/>
<path d="M63.75 48.4165C63.75 48.4165 67.1667 52.0832 67.9167 53.4998C68.5 54.6665 67.9167 56.3332 67.9167 56.3332" stroke="#D08487" strokeWidth="0.646" stroke-miterlimit="10" strokeLinecap="round" strokeLinejoin="round"/>
<path d="M63 54.5002L63.9167 53.5002L63.75 51.5835L64.25 53.6668L65 53.8335L65.5 52.3335V54.0835L66.5 54.7502L64.8333 54.0835C64.8333 54.0835 64.0833 54.0002 63.75 54.2502C63.4167 54.5002 63 54.5002 63 54.5002Z" fill="#D08487"/>
<path d="M128.667 97.7498C126.667 100.417 118.083 100.583 115.167 97.4165L114.833 97.9165L113.167 98.6665V150.167L132.583 149.833V99.2498L129 97.8332L128.667 97.7498Z" fill="#F07C74"/>
<path d="M200.583 108.583L198 68.5835H176.917L173.5 101L150.25 103.5L129 97.9168L122.25 121.083H120.75L114.833 97.9168L92.2501 103.667L67.9168 101.083L64.5001 68.6668H43.4168L40.8334 108.667C40.3334 116.417 45.5834 123.417 53.1668 125.083L89.0001 132.917L83.7501 193.833H119.667H123.333H159.167L153.917 132.583L188.167 125.083C195.833 123.25 201.083 116.333 200.583 108.583Z" fill="#5269B0"/>
<path d="M132.25 99C129.167 107.583 126.333 116 123.083 124.667H119.5C116.667 116.25 114 107.583 111.333 99" stroke="white" strokeWidth="0.646" stroke-miterlimit="10" strokeLinecap="round" strokeLinejoin="round"/>
<path d="M198.25 72.75H176.5L176.583 72.5H198.25V72.75Z" fill="black"/>
<path d="M43.1667 72.75H64.9167V72.5H43.1667V72.75Z" fill="black"/>
<path d="M153.917 132.417C151.583 131.833 149.333 133.75 149.667 136.167C150.583 143.667 151.833 157.25 148.917 162.083C144.917 168.917 151 175.917 150.667 179.833C150.417 183.75 150.667 193.667 150.667 193.667H159.167L153.917 132.417Z" fill="#455794"/>
<path d="M90.4167 193.667L89.5833 158.583C89.5833 156.833 86.9167 156.75 86.75 158.5L83.75 193.667H90.4167Z" fill="#455794"/>
<path d="M208.417 124.25C208.417 124.25 208.416 125.417 207.833 126.417C207.333 127.5 205.917 128.417 205.917 128.417L207.333 130.083C207.333 130.083 207.833 129.583 208.75 128.417C209.666 127.25 209.583 125.083 209.583 125.083L208.417 124.25Z" fill="#EB008B"/>
<path d="M198.917 97.7499L197.667 96.8333C197.667 96.8333 197.667 97.9999 197.083 98.9999C196.583 100.083 195.167 101 195.167 101L196.583 102.667C196.583 102.667 197.083 102.167 198 101C198.917 99.8333 198.917 97.7499 198.917 97.7499Z" fill="#009680"/>
<path d="M138.167 90.3333C138.333 90.1667 138.833 89.6667 139.5 88.75C140.417 87.5833 140.333 85.4167 140.333 85.4167L139.083 84.5C139.083 84.5 139.083 85.6667 138.5 86.6667C138 87.75 136.583 88.6667 136.583 88.6667L137.917 90.1667L138.167 90.3333C138.083 90.4167 138.083 90.4167 138.167 90.3333Z" fill="white"/>
<path d="M194.5 160.333L195.917 158.667C195.917 158.667 194.5 157.75 194 156.667C193.5 155.583 193.417 154.5 193.417 154.5L192.167 155.417C192.167 155.417 192.083 157.5 193 158.75C194 159.833 194.5 160.333 194.5 160.333Z" fill="#F07C74"/>
<path d="M205.917 185.75C205.417 184.667 205.333 183.583 205.333 183.583L204.083 184.5C204.083 184.5 204 186.583 204.917 187.833C205.833 189 206.333 189.5 206.333 189.5L207.75 187.833C207.917 187.75 206.417 186.75 205.917 185.75Z" fill="#8AD4EA"/>
<path d="M158.417 84.1667C157.917 83.0833 157.833 82 157.833 82L156.583 82.9167C156.583 82.9167 156.5 85 157.417 86.25C158.333 87.4167 158.833 87.9167 158.833 87.9167L160.25 86.25C160.333 86.1667 158.917 85.25 158.417 84.1667Z" fill="#D2434A"/>
<path d="M29.4999 124.25C29.4999 124.25 29.4999 125.417 30.0833 126.417C30.5833 127.5 31.9999 128.417 31.9999 128.417L30.5833 130.083C30.5833 130.083 30.0833 129.583 29.1666 128.417C28.2499 127.25 28.3333 125.083 28.3333 125.083L29.4999 124.25Z" fill="#EB008B"/>
<path d="M39 97.7499L40.25 96.8333C40.25 96.8333 40.25 97.9999 40.8333 98.9999C41.3333 100.083 42.75 101 42.75 101L41.3333 102.667C41.3333 102.667 40.8333 102.167 39.9167 101C38.9167 99.8333 39 97.7499 39 97.7499Z" fill="#009680"/>
<path d="M99.8332 90.3333C99.6665 90.1667 99.1665 89.6667 98.4999 88.75C97.5832 87.5833 97.6665 85.4167 97.6665 85.4167L98.9165 84.5C98.9165 84.5 98.9165 85.6667 99.4999 86.6667C99.9999 87.75 101.417 88.6667 101.417 88.6667L100.083 90.1667L99.8332 90.3333C99.8332 90.4167 99.8332 90.4167 99.8332 90.3333Z" fill="white"/>
<path d="M43.4167 160.333L42 158.667C42 158.667 43.4167 157.75 43.9167 156.667C44.4167 155.583 44.5 154.5 44.5 154.5L45.75 155.417C45.75 155.417 45.8333 157.5 44.9167 158.75C43.9167 159.833 43.4167 160.333 43.4167 160.333Z" fill="#F07C74"/>
<path d="M32 185.75C32.5 184.667 32.5833 183.583 32.5833 183.583L33.8333 184.5C33.8333 184.5 33.9167 186.583 33 187.833C32.0833 189 31.5833 189.5 31.5833 189.5L30.1667 187.833C30 187.75 31.5 186.75 32 185.75Z" fill="#8AD4EA"/>
<path d="M79.4999 84.1667C79.9999 83.0833 80.0833 82 80.0833 82L81.3333 82.9167C81.3333 82.9167 81.4166 85 80.4999 86.25C79.5833 87.4167 79.0833 87.9167 79.0833 87.9167L77.6666 86.25C77.5833 86.1667 78.9999 85.25 79.4999 84.1667Z" fill="#D2434A"/>
<path d="M235.917 193.667H21.75" stroke="#000425" strokeWidth="0.646" stroke-miterlimit="10" strokeLinecap="round" strokeLinejoin="round"/>
</svg>
