<svg width="30" height="30" viewBox="0 0 30 30" fill="none" xmlns="http://www.w3.org/2000/svg">
<path d="M15 11.25C14.0729 11.25 13.1666 10.9751 12.3958 10.46C11.6249 9.94495 11.0241 9.21286 10.6693 8.35633C10.3145 7.4998 10.2217 6.5573 10.4026 5.64802C10.5834 4.73873 11.0299 3.9035 11.6854 3.24794C12.341 2.59238 13.1762 2.14594 14.0855 1.96507C14.9948 1.7842 15.9373 1.87703 16.7938 2.23182C17.6504 2.5866 18.3824 3.18741 18.8975 3.95827C19.4126 4.72912 19.6875 5.6354 19.6875 6.5625C19.6875 7.17807 19.5663 7.78762 19.3307 8.35633C19.0951 8.92504 18.7498 9.44179 18.3146 9.87707C17.8793 10.3123 17.3625 10.6576 16.7938 10.8932C16.2251 11.1288 15.6156 11.25 15 11.25ZM15 21.2625C15.607 20.0012 16.4888 18.8918 17.5806 18.0157C18.6724 17.1397 19.9465 16.5193 21.3094 16.2H21.3563C20.994 14.7894 20.1728 13.5394 19.0221 12.6468C17.8713 11.7543 16.4563 11.2698 15 11.2698C13.5437 11.2698 12.1287 11.7543 10.9779 12.6468C9.82716 13.5394 9.006 14.7894 8.64375 16.2C10.0152 16.5129 11.2986 17.1304 12.3989 18.0068C13.4992 18.8831 14.3882 19.9959 15 21.2625ZM24.9094 20.625C24.141 20.6248 23.3735 20.678 22.6125 20.7844C18.6094 21.3281 15.5438 23.25 15.1125 25.6219C15.0542 25.827 15.0165 26.0374 15 26.25C15.0014 26.0264 14.9794 25.8034 14.9344 25.5844C14.4563 23.2125 11.3906 21.2906 7.43437 20.7469C6.65699 20.6509 5.87377 20.6102 5.09062 20.625H1.875V28.125H28.125V20.625H24.9094ZM16.0125 21.3469C15.6948 21.9405 15.4493 22.5699 15.2812 23.2219C16.6969 21.5531 19.275 20.3156 22.4812 19.8844C23.2851 19.7628 24.0964 19.697 24.9094 19.6875H26.25V16.875H23.4937C22.8306 16.8762 22.1699 16.9548 21.525 17.1094C20.3622 17.394 19.2714 17.9178 18.3223 18.6473C17.3732 19.3769 16.5865 20.2963 16.0125 21.3469ZM7.5 19.8563C10.7063 20.2875 13.2844 21.525 14.7094 23.1938C14.3824 21.9933 13.7991 20.878 12.9996 19.9247C12.2001 18.9714 11.2033 18.2028 10.0781 17.6719C9.55261 17.4271 9.00268 17.2385 8.4375 17.1094C7.80482 16.9577 7.15684 16.8791 6.50625 16.875H3.75V19.6875H5.09062C5.89669 19.6878 6.70176 19.7442 7.5 19.8563Z" fill="white"/>
</svg>
