<svg width="30" height="30" viewBox="0 0 30 30" fill="none" xmlns="http://www.w3.org/2000/svg">
<path d="M14.9995 30.0005C23.2838 30.0005 29.9995 23.2848 29.9995 15.0005C29.9995 6.71622 23.2838 0.000488281 14.9995 0.000488281C6.71524 0.000488281 -0.000488281 6.71622 -0.000488281 15.0005C-0.000488281 23.2848 6.71524 30.0005 14.9995 30.0005Z" fill="#239FDB"/>
<path fillRule="evenodd" clipRule="evenodd" d="M21.3507 10.7584C21.2206 10.7592 21.0945 10.8039 20.993 10.8853L12.2422 17.6365L9.11417 13.7677C9.06786 13.7053 9.00943 13.6529 8.94238 13.6136C8.87532 13.5744 8.80103 13.5491 8.72396 13.5392C8.64689 13.5294 8.56863 13.5352 8.49386 13.5564C8.4191 13.5775 8.34938 13.6135 8.28888 13.6623C8.22838 13.711 8.17836 13.7715 8.14181 13.8401C8.10525 13.9086 8.08293 13.9839 8.07616 14.0613C8.0694 14.1387 8.07834 14.2167 8.10245 14.2905C8.12657 14.3644 8.16535 14.4326 8.21647 14.4911L12.0519 19.2415L21.7003 11.798C21.7974 11.7252 21.8691 11.6236 21.9051 11.5077C21.9411 11.3918 21.9397 11.2675 21.9009 11.1524C21.8622 11.0374 21.7882 10.9375 21.6894 10.8669C21.5906 10.7964 21.4721 10.7577 21.3507 10.7584Z" fill="white"/>
</svg>
