<svg width="430" height="45" viewBox="0 0 430 45" fill="none" xmlns="http://www.w3.org/2000/svg">
<path d="M1366 12.26C1365.89 12.439 1365.75 12.6036 1365.6 12.75C1336.2 11.56 1336.41 0 1307 0C1277.59 0 1277.58 12.75 1248.16 12.75C1218.74 12.75 1218.73 0 1189.31 0C1159.89 0 1159.89 12.75 1130.48 12.75C1101.07 12.75 1101.06 0 1071.64 0C1042.22 0 1042.23 12.75 1012.81 12.75C983.39 12.75 983.39 0 954 0C924.61 0 924.59 12.75 895.17 12.75C865.75 12.75 865.72 0 836.3 0C806.88 0 806.89 12.75 777.47 12.75C748.05 12.75 748.05 0 718.64 0C689.23 0 689.22 12.75 659.81 12.75C630.4 12.75 630.39 0 601 0C571.61 0 571.58 12.75 542.17 12.75C512.76 12.75 512.73 0 483.32 0C453.91 0 453.9 12.75 424.49 12.75C395.08 12.75 395.07 0 365.66 0C336.25 0 336.24 12.75 306.82 12.75C277.4 12.75 277.41 0 248 0C218.59 0 218.59 12.75 189.17 12.75C159.75 12.75 159.74 0 130.33 0C100.92 0 100.91 12.75 71.5 12.75C42.09 12.75 42.0801 0 12.67 0C-16.74 0 -16.75 12.75 -46.17 12.75C-75.5901 12.75 -75.58 0 -105 0C-134.42 0 -134.41 12.75 -163.83 12.75C-193.25 12.75 -193.24 0 -222.66 0C-252.08 0 -252.07 12.75 -281.49 12.75C-310.91 12.75 -310.9 0 -340.32 0C-369.74 0 -369.74 12.75 -399.15 12.75C-428.56 12.75 -428.57 0 -458 0C-487.43 0 -487.4 12.75 -516.81 12.75C-546.22 12.75 -546.23 0 -575.64 0C-604.89 0 -605.07 12.61 -634 12.74V45L1366 45V12.26Z" fill="url(#paint0_linear_1694_2155)"/>
<defs>
<linearGradient id="paint0_linear_1694_2155" x1="432" y1="22.5" x2="-4.71725e-05" y2="22.5" gradientUnits="userSpaceOnUse">
<stop stop-color="white"/>
<stop offset="1" stop-color="white"/>
</linearGradient>
</defs>
</svg>
